<svg width="124" height="124" viewBox="0 0 124 124" fill="none" xmlns="http://www.w3.org/2000/svg"><g transform="translate(0 4)">
<path d="M113.256 2.29986C118.229 7.04271 122.243 11.9435 123.404 18.8536C119.764 24.5144 114.247 27.2375 107.849 29.0535C104.239 28.6765 104.239 28.6765 101.909 27.7408C101.944 27.0817 101.978 26.4227 102.014 25.7436C99.3867 26.7095 99.3867 26.7095 96.8638 28.4778C93.5367 39.4207 97.8878 54.0994 100.972 64.7425C101.631 64.777 102.29 64.8116 102.969 64.8472C106.029 71.8789 105.053 80.5094 103.762 87.9203C101.611 93.3674 97.9477 96.1875 93.148 99.3805C92.4663 100.171 91.7846 100.961 91.0823 101.776C88.5511 104.536 86.004 106.127 82.6907 107.845C82.0316 107.81 81.3725 107.776 80.6934 107.74C80.6589 108.399 80.6243 109.058 80.5887 109.737C79.6001 109.686 78.6115 109.634 77.5929 109.58C77.2288 110.222 76.8647 110.864 76.4896 111.525C75.1714 111.456 73.8532 111.387 72.495 111.316C72.4605 111.975 72.426 112.634 72.3904 113.313C59.2181 115.931 48.8196 117.777 36.4397 111.429C35.8364 110.921 35.2331 110.413 34.6115 109.89C29.4248 105.589 23.2056 102.764 16.6195 101.503C12.0223 100.47 9.90336 98.7053 7.30073 94.811C5.93297 91.8939 5.97667 88.975 5.73961 85.7873C4.53817 84.2841 3.33577 82.7815 2.1143 81.2945C-1.76517 74.8129 0.788578 63.679 1.26557 56.513C3.69293 55.5763 3.69292 55.5763 6.36339 54.7774C7.00522 55.1415 7.64704 55.5056 8.30832 55.8807C9.19929 55.4317 9.19929 55.4317 10.1083 54.9737C13.4797 53.682 15.0279 53.9849 18.3469 55.4055C23.0455 60.6533 23.7358 67.2399 24.5114 73.9958C24.9411 76.8859 24.9411 76.8859 27.107 78.1334C27.7735 78.42 28.44 78.7066 29.1268 79.002C31.5889 81.5958 33.8647 84.2649 36.0893 87.0649C39.0692 89.9808 41.4472 90.9088 45.4754 91.8752C46.4814 91.5975 47.4873 91.3198 48.5237 91.0336C51.7737 90.9782 55.0142 90.9794 58.264 91.0258C60.0291 91.0269 61.7938 90.9309 63.5555 90.82C63.9195 90.1782 64.2836 89.5364 64.6588 88.8751C65.6474 88.9269 66.636 88.9787 67.6546 89.0321C68.2267 87.575 68.2267 87.575 68.8103 86.0886C69.4694 86.1231 70.1285 86.1576 70.8075 86.1932C70.5464 81.7184 70.5464 81.7184 70.2799 77.1532C71.2859 76.8755 72.2918 76.5978 73.3282 76.3116C74.8019 73.1223 75.8802 69.8568 76.8474 66.4823C76.1883 66.4478 75.5292 66.4132 74.8502 66.3776C75.2935 64.8635 75.2935 64.8635 75.7458 63.3188C76.3246 58.5348 75.3142 56.9179 72.8039 52.877C69.7104 47.6764 67.5338 42.8477 66.3816 36.894C66.2337 36.1441 66.0859 35.3941 65.9335 34.6214C65.8209 34.0359 65.7083 33.4504 65.5923 32.8472C66.2514 32.8817 66.9105 32.9163 67.5896 32.9518C67.4913 32.34 67.393 31.7282 67.2917 31.0978C66.4731 23.7401 68.0789 19.0178 72.6308 13.1886C74.6331 11.3107 76.5475 9.9934 78.8843 8.50946C79.5779 7.8849 80.2715 7.26036 80.9862 6.61688C86.5037 2.57616 90.4223 0.483714 97.2976 1.39309C99.4222 1.72704 99.4222 1.72702 101.831 0.574519C106.09 -0.670177 109.397 0.199222 113.256 2.29986Z" fill="#11110A"/>
<path d="M96.2796 1.41009C96.9042 2.10373 97.5287 2.79736 98.1722 3.51202C92.0234 6.19389 92.0234 6.19388 89.7866 7.07803C87.8772 7.89005 87.8772 7.89005 86.4759 9.34536C84.7713 10.8207 84.7713 10.8207 81.7035 12.0368C78.2492 13.6802 77.314 15.1448 75.365 18.3387C74.7059 18.3041 74.0468 18.2696 73.3677 18.234C71.4439 21.2255 71.1489 22.3567 70.9518 26.1184C70.2927 26.0838 69.6336 26.0493 68.9545 26.0137C68.9027 27.0024 68.8509 27.991 68.7975 29.0096C68.1557 28.6455 67.5139 28.2814 66.8526 27.9063C67.5447 21.3935 69.3143 17.1645 73.6817 12.2422C76.4898 10.0112 76.4899 10.0112 78.8843 8.50946C79.5779 7.8849 80.2715 7.26036 80.9862 6.61688C90.5768 -0.0160747 90.5767 -0.0161238 96.2796 1.41009Z" fill="#010100"/>
<path d="M74.4314 74.3666C75.4028 74.748 76.3742 75.1294 77.375 75.5223C77.6527 76.5282 77.9304 77.5341 78.2166 78.5705C76.2659 81.1594 76.2659 81.1594 73.9604 83.3543C73.3013 83.3197 72.6422 83.2852 71.9631 83.2496C72.2409 84.2555 72.5186 85.2614 72.8048 86.2978C71.512 89.9866 70.8982 90.9772 67.4453 93.0266C64.8389 93.0324 62.3512 92.9479 59.7618 92.749C59.0613 92.7033 58.3608 92.6576 57.6391 92.6104C55.9141 92.4965 54.1898 92.3702 52.4658 92.2415C52.4831 91.912 52.5004 91.5824 52.5182 91.2429C53.3021 91.2349 54.0861 91.227 54.8938 91.2187C55.9082 91.197 56.9226 91.1753 57.9678 91.153C58.9794 91.1363 59.991 91.1196 61.0333 91.1024C61.8656 91.0092 62.6979 90.9161 63.5555 90.82C63.9195 90.1782 64.2836 89.5364 64.6588 88.8751C65.6474 88.9269 66.636 88.9787 67.6546 89.0321C68.036 88.0607 68.4174 87.0894 68.8103 86.0886C69.4694 86.1231 70.1285 86.1576 70.8075 86.1932C70.6334 83.21 70.4593 80.2268 70.2799 77.1532C71.2859 76.8755 72.2918 76.5978 73.3282 76.3116C73.6923 75.6698 74.0563 75.0279 74.4314 74.3666Z" fill="#020200"/>
<path d="M4.3661 54.6727C5.64974 55.4009 6.93339 56.1291 8.25594 56.8793C6.85465 58.141 5.45337 59.4028 4.05208 60.6645C3.67072 61.6359 3.28936 62.6072 2.89644 63.608C2.23735 63.5735 1.57825 63.5389 0.899182 63.5034C0.888573 60.1232 0.888613 60.1232 1.26557 56.513C2.28876 55.9057 3.3119 55.2984 4.3661 54.6727Z" fill="#040400"/>
</g></svg>
