<svg width="369" height="381" viewBox="0 0 369 381" fill="none" xmlns="http://www.w3.org/2000/svg">
<path d="M271.255 0.861811C273.255 3.61181 273.255 3.61181 275.255 6.86181C280.011 12.178 286.403 18.5778 293.255 20.8618C296.255 24.3063 296.255 24.3063 296.255 26.8618C298.235 27.8518 298.235 27.8518 300.255 28.8618C300.255 29.5218 300.255 30.1818 300.255 30.8618C301.08 31.0474 301.905 31.2331 302.755 31.4243C306.811 33.0904 309.272 35.3143 312.423 38.3032C314.276 40.0766 314.276 40.0766 317.255 40.8618C317.255 41.5218 317.255 42.1818 317.255 42.8618C317.915 42.8618 318.575 42.8618 319.255 42.8618C319.255 43.5218 319.255 44.1818 319.255 44.8618C319.915 44.8618 320.575 44.8618 321.255 44.8618C322.661 46.506 324.005 48.2043 325.317 49.9243C328.864 54.3546 332.352 57.85 336.931 61.1743C339.499 63.0388 341.93 65.0329 344.38 67.0493C348.179 70.1061 351.936 72.6085 356.255 74.8618C356.243 75.5888 356.232 76.3159 356.22 77.0649C356.154 84.3881 356.531 91.5755 357.255 98.8618C356.595 98.8618 355.935 98.8618 355.255 98.8618C355.566 100.758 355.879 102.654 356.192 104.549C356.366 105.605 356.54 106.661 356.72 107.749C357.68 113.341 357.68 113.341 359.313 118.764C360.349 122.171 360.422 124.876 360.317 128.424C360.208 132.474 360.464 135.909 361.255 139.862C361.844 144.748 362.293 149.649 362.755 154.549C362.822 155.256 362.89 155.962 362.96 156.689C363.995 167.603 364.672 178.483 364.876 189.448C364.982 193.923 365.191 198.051 366.302 202.397C367.594 207.601 367.284 212.547 366.942 217.862C366.87 219.262 366.87 219.262 366.796 220.69C366.555 225.056 366.2 229.345 365.587 233.674C365.114 237.609 365.967 240.098 367.255 243.862C367.486 247.49 367.398 251.104 367.317 254.737C367.12 262.335 367.12 262.335 367.806 269.885C368.527 274.845 367.917 279.655 367.38 284.612C367.288 285.544 367.197 286.476 367.102 287.436C366.399 294.337 366.399 294.337 365.657 297.031C365.035 298.946 365.035 298.946 366.255 300.862C366.762 308.63 366.5 315.253 363.067 322.299C360.891 324.175 359.383 324.413 356.54 324.268C353.532 323.733 350.722 322.804 347.817 321.862C340.906 319.637 336.045 319.178 328.942 320.862C320.891 322.662 312.453 322.013 304.255 321.862C304.291 322.739 304.328 323.617 304.366 324.521C304.486 327.797 304.573 331.072 304.639 334.35C304.674 335.764 304.722 337.178 304.783 338.592C305.271 350.243 305.271 350.243 302.865 354.074C301.071 355.678 299.401 356.782 297.255 357.862C296.282 358.367 295.308 358.872 294.306 359.393C292.95 359.873 292.95 359.873 291.567 360.362C290.656 360.702 289.745 361.042 288.806 361.393C286.255 361.862 286.255 361.862 284.371 360.91C280.69 359.087 276.792 359.534 272.755 359.549C271.9 359.533 271.045 359.517 270.165 359.5C265.442 359.497 262.896 359.626 259.255 362.862C257.071 363.19 257.071 363.19 254.817 363.112C254.076 363.096 253.335 363.081 252.571 363.065C250.255 362.862 250.255 362.862 247.912 362.309C243.435 361.555 239.291 362.688 234.88 363.549C233.959 363.711 233.039 363.873 232.091 364.04C226.338 365.137 222.227 366.806 217.255 369.862C213.443 370.208 210.261 369.863 206.489 369.221C202.249 368.686 199.036 369.515 194.942 370.799C187.904 372.816 181.489 373.112 174.201 372.924C168.125 372.786 162.437 373.414 156.434 374.417C151.699 375.08 147.025 375.037 142.255 374.862C141.925 375.522 141.595 376.182 141.255 376.862C140.351 376.778 139.447 376.694 138.516 376.608C137.337 376.506 136.157 376.404 134.942 376.299C133.771 376.195 132.599 376.09 131.391 375.983C128.224 375.676 128.224 375.676 125.255 376.862C122.805 376.96 120.391 377.003 117.942 376.987C117.239 376.986 116.536 376.984 115.811 376.983C109.825 376.94 103.912 376.533 97.9501 375.983C95.2847 375.644 95.2847 375.644 93.2548 376.862C91.2945 377.016 89.3294 377.112 87.3641 377.178C86.1795 377.22 84.9948 377.262 83.7743 377.305C82.5304 377.344 81.2864 377.384 80.0048 377.424C78.7763 377.467 77.5478 377.511 76.2821 377.555C70.9365 377.738 65.6039 377.885 60.2548 377.862C59.9248 378.522 59.5948 379.182 59.2548 379.862C55.4842 379.98 51.7141 380.05 47.9423 380.112C46.8897 380.145 45.8372 380.179 44.7528 380.213C37.5094 380.303 30.5912 379.671 24.2548 375.862C22.5856 373.339 22.5856 373.339 21.2548 370.862C20.5329 370.222 19.811 369.583 19.0673 368.924C17.2548 366.862 17.2548 366.862 17.0048 363.612C17.0873 362.704 17.1698 361.797 17.2548 360.862C16.2648 361.192 15.2748 361.522 14.2548 361.862C14.2757 361.227 14.2967 360.592 14.3182 359.938C14.4018 357.037 14.4536 354.138 14.5048 351.237C14.5383 350.238 14.5718 349.239 14.6063 348.209C14.6892 341.955 13.9974 339.021 10.2548 333.862C9.93445 330.311 9.93445 330.311 10.1298 326.549C10.2915 322.211 10.333 318.261 9.12977 314.049C7.7742 309.035 8.99035 304.789 10.2548 299.862C10.5966 298.197 10.9323 296.531 11.2548 294.862C10.5948 294.532 9.93477 294.202 9.25477 293.862C8.25477 292.862 8.25477 292.862 8.19227 289.772C8.23389 287.209 8.27556 284.647 8.31727 282.084C8.48779 278.97 8.48779 278.97 7.25477 276.862C7.19368 275.153 7.19467 273.442 7.22742 271.733C7.23967 270.697 7.25192 269.661 7.26453 268.594C7.29925 266.425 7.3382 264.256 7.38172 262.086C7.44148 256.388 7.18228 251.232 5.72059 245.711C4.35631 240.296 5.52926 235.737 6.94227 230.487C8.49769 224.186 7.80182 220.667 5.25477 214.862C3.62763 207.614 3.87028 201.856 6.25477 194.862C5.93551 192.388 5.05993 190.335 4.19227 187.987C1.90417 180.039 2.31938 170.567 5.25477 162.862C4.59477 162.862 3.93477 162.862 3.25477 162.862C3.08096 151.275 3.08096 151.275 4.00477 146.674C4.25953 142.789 3.96813 141.806 2.31727 138.487C-2.00784 129.626 0.718981 120.28 2.50086 111.01C3.89938 103.562 4.61076 96.994 2.63758 89.5259C1.64675 82.6305 4.80119 74.7822 8.25477 68.8618C8.91477 68.8618 9.57477 68.8618 10.2548 68.8618C10.5848 67.8718 10.9148 66.8818 11.2548 65.8618C12.0798 65.5524 12.9048 65.2431 13.7548 64.9243C14.5798 64.5737 15.4048 64.2231 16.2548 63.8618C16.9468 61.8392 16.9468 61.8392 17.2548 59.8618C18.4716 60.3156 19.6885 60.7693 20.9423 61.2368C21.6745 61.5062 22.4066 61.7756 23.161 62.0532C25.2548 62.8618 25.2548 62.8618 27.9423 64.1743C31.0163 65.0882 32.3787 64.1155 35.2548 62.8618C37.1298 63.2368 37.1298 63.2368 39.2548 63.8618C41.588 63.8869 43.9216 63.8889 46.2548 63.8618C46.3135 60.5286 46.3486 57.1954 46.3798 53.8618C46.3965 52.9272 46.4133 51.9927 46.4305 51.0298C46.4612 46.6425 46.3597 42.6868 45.1805 38.4438C44.0723 34.156 44.4916 32.4402 46.1923 28.5454C47.727 26.1135 49.7353 25.1539 52.2548 23.8618C52.4894 23.1889 52.724 22.516 52.9657 21.8227C53.3911 21.1756 53.8165 20.5285 54.2548 19.8618C57.4774 19.3227 57.4774 19.3227 61.3173 19.2368C63.6323 19.1757 65.9479 19.066 68.2548 18.8618C68.5848 18.2018 68.9148 17.5418 69.2548 16.8618C71.9038 14.5439 73.9453 12.922 77.5477 12.7563C81.5665 13.1431 83.8307 13.5791 87.2548 15.8618C89.8561 16.3586 89.8561 16.3586 92.6923 16.5493C93.6397 16.6357 94.5872 16.722 95.5634 16.811C98.0787 16.8585 99.8553 16.5166 102.255 15.8618C103.67 15.7972 105.088 15.7757 106.505 15.7993C108.361 15.8302 108.361 15.8302 110.255 15.8618C110.585 15.2018 110.915 14.5418 111.255 13.8618C116.617 11.1988 121.696 10.5646 127.602 11.0493C130.503 10.9823 130.503 10.9823 133.923 9.36962C138.802 7.42199 143.317 7.5598 148.505 7.73681C150.26 7.7803 152.015 7.81953 153.77 7.854C154.919 7.89049 154.919 7.89049 156.092 7.92773C158.291 7.86072 160.13 7.39709 162.255 6.86181C164.244 7.13037 166.223 7.47241 168.192 7.86181C174.937 8.99235 181.512 9.17646 188.255 7.86181C188.585 7.20181 188.915 6.54181 189.255 5.86181C197.851 2.78244 206.931 3.76074 215.927 3.93994C223.136 4.02714 229.691 3.54297 236.762 2.16674C239.999 1.77075 242.202 2.80865 245.255 3.86181C248.842 3.52669 252.308 2.72543 255.817 1.92431C257.671 1.51057 259.526 1.10531 261.384 0.709467C262.199 0.523922 263.014 0.338378 263.855 0.147211C266.617 -0.181281 268.601 0.0328006 271.255 0.861811ZM217.942 29.3618C209.629 31.3362 202.318 32.1642 193.809 31.8423C189.162 31.8678 185.105 32.939 180.638 34.1313C175.956 35.1424 171.322 35.3786 166.546 35.5705C163.541 35.694 161.129 35.9036 158.255 36.8618C155.259 36.9238 152.288 36.929 149.294 36.8892C147.44 36.8765 145.585 36.8641 143.731 36.852C140.836 36.8276 137.941 36.8 135.046 36.7659C124.48 36.6491 113.999 36.7735 103.466 37.6782C102.568 37.7481 101.671 37.8179 100.747 37.8899C99.51 38.0105 99.51 38.0105 98.2484 38.1335C97.5231 38.2012 96.7978 38.2689 96.0505 38.3386C93.8507 38.7705 93.8507 38.7705 92.2548 41.8618C89.4108 42.0579 86.7761 42.0957 83.9423 41.9868C82.4255 41.9431 80.9085 41.9039 79.3915 41.8696C78.7182 41.8453 78.0449 41.821 77.3512 41.7959C74.7481 41.82 74.7481 41.82 70.2548 42.8618C70.9148 48.8018 71.5748 54.7418 72.2548 60.8618C73.5748 60.8618 74.8948 60.8618 76.2548 60.8618C76.5848 60.2018 76.9148 59.5418 77.2548 58.8618C78.5748 58.8618 79.8948 58.8618 81.2548 58.8618C81.9148 58.5318 82.5748 58.2018 83.2548 57.8618C84.8959 58.2824 86.5191 58.7741 88.1298 59.2993C94.1921 61.0554 99.9713 61.4082 106.255 60.8618C106.585 60.5318 106.915 60.2018 107.255 59.8618C111.282 59.694 114.906 59.9606 118.88 60.6118C121.153 60.9557 121.153 60.9557 123.255 60.8618C124.926 59.5337 126.592 58.2001 128.255 56.8618C130.733 56.6068 133.075 56.671 135.559 56.8188C138.882 56.8718 141.974 56.3845 145.255 55.8618C153.47 54.6209 161.396 53.6896 169.712 53.8579C172.644 53.8624 175.394 53.4975 178.255 52.8618C177.76 51.8718 177.76 51.8718 177.255 50.8618C176.595 50.8618 175.935 50.8618 175.255 50.8618C175.255 50.2018 175.255 49.5418 175.255 48.8618C176.534 49.1093 177.812 49.3568 179.13 49.6118C179.849 49.751 180.568 49.8902 181.309 50.0337C183.878 51.1272 184.085 52.3951 185.255 54.8618C186.99 56.0828 186.99 56.0828 189.005 57.0493C193.346 59.5695 195.308 62.6273 197.884 66.8501C199.622 69.4013 201.518 70.4936 204.255 71.8618C205.588 73.1951 206.921 74.5285 208.255 75.8618C209.224 76.5012 210.194 77.1406 211.192 77.7993C214.958 80.3354 217.862 83.3662 220.942 86.6743C222.207 88.0854 222.207 88.0854 224.255 87.8618C224.255 88.5218 224.255 89.1818 224.255 89.8618C225.94 91.5667 225.94 91.5667 228.067 93.2993C230.567 95.4072 232.975 97.5171 235.255 99.8618C235.915 100.522 236.575 101.182 237.255 101.862C237.585 102.522 237.915 103.182 238.255 103.862C239.369 104.336 240.482 104.811 241.63 105.299C244.945 106.728 245.9 107.438 248.255 109.862C249.483 110.702 250.738 111.504 252.013 112.272C253.074 112.921 253.074 112.921 254.157 113.583C255.646 114.482 257.136 115.38 258.626 116.278C259.331 116.709 260.036 117.14 260.763 117.584C261.409 117.974 262.055 118.363 262.72 118.764C264.255 119.862 264.255 119.862 265.255 121.862C266.947 122.756 268.641 123.647 270.368 124.471C272.255 125.862 272.255 125.862 274.052 128.69C276.659 132.444 279.417 134.395 283.192 136.862C288.1 140.089 291.633 143.217 295.255 147.862C296.142 148.749 297.029 149.636 297.942 150.549C302.119 154.726 302.119 154.726 302.502 157.935C302.501 158.731 302.499 159.526 302.498 160.346C302.501 161.25 302.504 162.155 302.507 163.087C302.496 164.549 302.496 164.549 302.485 166.042C302.485 167.046 302.484 168.051 302.484 169.087C302.481 171.213 302.473 173.34 302.461 175.467C302.442 178.717 302.44 181.967 302.44 185.217C302.435 187.284 302.43 189.35 302.423 191.417C302.422 192.387 302.421 193.358 302.419 194.359C302.413 195.27 302.407 196.181 302.4 197.119C302.396 197.916 302.392 198.713 302.388 199.534C302.255 201.862 302.255 201.862 301.683 204.471C301.034 206.997 301.034 206.997 302.255 209.862C302.275 212.348 302.25 214.815 302.192 217.299C302.119 222.348 302.311 227.014 303.317 231.987C304.9 240.247 304.045 248.38 302.224 256.538C301.027 262.348 300.96 268.009 301.005 273.924C300.997 274.948 300.989 275.973 300.981 277.028C300.996 282.582 301.403 287.642 302.826 293.02C303.255 294.862 303.255 294.862 303.255 297.862C314.669 297.255 314.669 297.255 326.067 296.424C326.796 296.364 327.524 296.303 328.274 296.241C330.533 295.809 332.227 294.928 334.255 293.862C335.921 293.528 337.588 293.195 339.255 292.862C340.6 292.219 341.935 291.555 343.255 290.862C343.038 289.86 342.822 288.859 342.599 287.827C342.317 286.484 342.036 285.142 341.755 283.799C341.612 283.143 341.469 282.486 341.321 281.809C340.108 275.944 340.031 270.48 340.759 264.53C341.436 258.911 341.275 253.351 341.128 247.704C341.063 242.969 341.488 239.333 343.255 234.862C343.694 231.436 343.312 229.977 341.751 226.838C339.703 222.176 339.887 217.69 340.005 212.674C340.01 211.786 340.015 210.897 340.02 209.981C340.1 203.398 340.1 203.398 340.775 201.064C341.497 197.752 341.259 194.474 341.134 191.108C341.11 190.343 341.086 189.577 341.062 188.789C341.011 187.145 340.958 185.502 340.903 183.859C340.759 179.554 340.632 175.249 340.509 170.944C340.484 170.084 340.459 169.225 340.434 168.339C340.199 159.638 340.192 150.943 340.292 142.239C340.338 136.683 340.28 131.335 339.255 125.862C338.595 125.532 337.935 125.202 337.255 124.862C337.307 123.789 337.307 123.789 337.36 122.694C337.578 114.672 336.349 107.591 334.255 99.8618C330.821 100.431 328.141 101.315 325.067 102.924C318.93 105.743 313.223 105.435 306.692 104.174C303.279 103.864 302.335 104.081 299.317 105.299C294.264 107.225 289.333 107.084 284.015 106.926C279.941 106.811 276.255 107.11 272.255 107.862C265.3 108.556 259.958 107.377 253.505 104.737C251.346 103.741 251.346 103.741 249.255 103.862C249.255 103.202 249.255 102.542 249.255 101.862C248.595 101.862 247.935 101.862 247.255 101.862C246.925 99.5518 246.595 97.2418 246.255 94.8618C245.265 94.5318 244.275 94.2018 243.255 93.8618C243.422 93.0626 243.59 92.2634 243.763 91.4399C244.787 85.9149 245.568 81.0849 244.38 75.5493C242.262 65.5465 243.094 55.0331 243.255 44.8618C243.915 44.8618 244.575 44.8618 245.255 44.8618C245.62 38.2887 244.391 33.067 242.255 26.8618C233.669 26.1203 226.258 27.3786 217.942 29.3618ZM267.255 28.8618C265.918 34.811 264.672 41.972 267.692 47.4868C268.208 48.2706 268.724 49.0543 269.255 49.8618C270.372 55.8555 270.348 61.8441 270.38 67.9243C270.385 68.6799 270.389 69.4356 270.394 70.2141C270.38 75.1788 269.958 79.9466 269.255 84.8618C271.091 85.556 271.091 85.556 273.255 85.8618C274.327 85.2018 275.4 84.5418 276.505 83.8618C280.809 81.447 284.47 81.9742 289.192 82.5493C294.641 83.2763 294.641 83.2763 299.622 81.3149C300.264 80.6498 300.906 79.9846 301.567 79.2993C303.799 77.0763 305.288 75.9226 308.475 75.7222C314.132 75.9804 319.686 76.8705 325.255 77.8618C323.639 75.8206 321.969 73.8211 320.255 71.8618C319.595 71.8618 318.935 71.8618 318.255 71.8618C317.925 70.8718 317.595 69.8818 317.255 68.8618C313.239 65.5664 308.675 62.9872 304.005 60.7368C298.959 58.2886 295.488 55.1891 291.88 50.9243C288.663 47.1584 285.45 44.4939 281.255 41.8618C280.595 41.8618 279.935 41.8618 279.255 41.8618C279.255 41.2018 279.255 40.5418 279.255 39.8618C277.811 38.955 276.366 38.0489 274.919 37.147C272.015 34.9042 270.29 31.8863 268.255 28.8618C267.925 28.8618 267.595 28.8618 267.255 28.8618ZM123.255 83.8618C120.991 84.1489 120.991 84.1489 118.716 84.2056C117.888 84.2352 117.061 84.2649 116.208 84.2954C114.481 84.3399 112.755 84.3841 111.028 84.4282C110.203 84.4579 109.378 84.4875 108.528 84.5181C107.78 84.5368 107.031 84.5554 106.26 84.5747C103.941 84.7597 103.941 84.7597 101.255 86.8618C98.7587 87.073 98.7587 87.073 95.8173 87.022C94.7577 87.011 93.698 87.0001 92.6063 86.9888C91.5003 86.9675 90.3943 86.9462 89.2548 86.9243C87.0673 86.8899 84.8798 86.8597 82.6923 86.8345C81.2363 86.8075 81.2363 86.8075 79.7509 86.78C77.1229 86.7474 77.1229 86.7474 74.2548 87.8618C68.3476 88.2303 62.5298 87.7784 56.6766 86.9829C54.1715 86.7712 54.1715 86.7712 51.3993 87.3384C46.7855 88.1064 42.2574 87.8282 37.5946 87.7017C34.2158 87.8637 32.1559 88.1345 29.2548 89.8618C23.7612 99.2119 25.1008 108.273 26.7352 118.42C28.2831 128.674 28.5362 137.018 25.2548 146.862C25.9155 148.531 26.5831 150.197 27.2548 151.862C27.4956 153.98 27.6555 156.108 27.7548 158.237C28.0414 163.328 28.5855 168.263 29.3798 173.299C30.3532 180.036 30.0857 186.095 29.3485 192.815C28.9545 196.04 28.9545 196.04 31.2548 198.862C31.4977 201.143 31.4977 201.143 31.4852 203.792C31.4833 204.752 31.4814 205.712 31.4794 206.702C31.4671 207.703 31.4549 208.705 31.4423 209.737C31.4416 210.731 31.441 211.725 31.4403 212.749C31.3953 220.223 31.3953 220.223 30.6859 223.45C30.1294 226.563 31.0237 228.984 31.7699 232.007C32.8419 238.318 32.4148 244.852 32.3173 251.237C32.2896 253.428 32.2649 255.619 32.2461 257.81C32.2283 259.783 32.2009 261.755 32.173 263.727C32.1032 266.893 32.1032 266.893 33.2548 269.862C33.3486 271.626 33.3855 273.393 33.3876 275.159C33.3895 276.721 33.3895 276.721 33.3915 278.315C33.3876 279.403 33.3838 280.491 33.3798 281.612C33.3836 282.684 33.3875 283.757 33.3915 284.862C33.3806 293.684 33.3806 293.684 32.622 297.877C32.2045 301.27 32.7857 301.927 34.2548 304.862C34.5419 306.981 34.5419 306.981 34.5985 309.233C34.6282 310.055 34.6578 310.876 34.6884 311.723C34.7103 312.573 34.7322 313.423 34.7548 314.299C34.7687 320.492 34.7687 320.492 36.3173 326.393C37.7747 330.231 37.1259 333.891 36.7548 337.924C36.6088 339.518 36.473 341.114 36.3485 342.709C36.2834 343.411 36.2183 344.112 36.1513 344.835C36.2751 347.26 37.05 348.777 38.2548 350.862C38.8194 350.679 39.384 350.496 39.9657 350.307C42.5997 349.795 44.2851 350.103 46.8798 350.737C48.0438 351.011 48.0438 351.011 49.2313 351.292C51.2548 351.862 51.2548 351.862 53.2548 352.862C54.9235 352.2 56.5898 351.533 58.2548 350.862C62.1334 350.341 66.0332 350.26 69.9423 350.112C70.9806 350.056 72.0189 350.001 73.0888 349.944C79.0236 349.698 84.2556 350 90.0118 351.513C92.7106 351.933 94.6414 351.626 97.2548 350.862C97.9148 350.202 98.5748 349.542 99.2548 348.862C100.575 348.862 101.895 348.862 103.255 348.862C103.255 348.202 103.255 347.542 103.255 346.862C105.464 347.316 107.672 347.775 109.88 348.237C111.11 348.492 112.339 348.747 113.606 349.01C117.255 349.862 117.255 349.862 120.466 351.151C121.846 351.503 121.846 351.503 123.255 351.862C123.844 351.393 124.433 350.923 125.04 350.44C128.682 347.845 132.424 349.041 136.692 349.612C138.502 349.818 140.312 350.024 142.122 350.229C145.109 350.591 148.092 350.973 151.075 351.37C152.145 351.491 153.215 351.612 154.317 351.737C155.216 351.858 156.114 351.979 157.04 352.104C160.294 351.859 162.284 351.11 165.278 349.881C171.846 347.351 177.859 347.442 184.817 347.674C187.131 347.726 189.445 347.775 191.759 347.819C192.767 347.85 193.776 347.88 194.816 347.912C197.264 348.036 197.264 348.036 199.255 346.862C199.585 345.872 199.915 344.882 200.255 343.862C205.243 341.105 209.304 342.204 214.571 343.452C217.476 343.896 219.424 343.57 222.255 342.862C223.472 342.697 224.689 342.532 225.942 342.362C229.124 342.056 229.124 342.056 231.255 340.862C232.833 340.769 232.833 340.769 234.442 340.674C238.423 339.826 238.85 339.487 241.442 336.737C243.895 334.374 244.896 333.882 248.364 333.69C251.363 333.957 254.293 334.327 257.255 334.862C257.585 334.202 257.915 333.542 258.255 332.862C260.216 332.448 260.216 332.448 262.63 332.237C263.421 332.162 264.213 332.087 265.028 332.01C266.767 331.894 268.512 331.862 270.255 331.862C272.948 331.285 275.59 330.561 278.255 329.862C278.735 326.529 279.214 323.195 279.692 319.862C279.894 318.46 279.894 318.46 280.1 317.03C280.872 311.646 281.599 306.261 282.255 300.862C281.265 300.202 280.275 299.542 279.255 298.862C279.397 297.278 279.544 295.695 279.692 294.112C279.814 292.789 279.814 292.789 279.938 291.44C280.255 288.862 280.255 288.862 280.766 287.17C281.457 283.907 281.397 280.677 281.388 277.358C281.389 276.638 281.389 275.919 281.39 275.177C281.391 273.66 281.389 272.143 281.385 270.626C281.38 268.304 281.385 265.982 281.391 263.661C281.391 262.185 281.39 260.709 281.388 259.233C281.391 258.192 281.391 258.192 281.394 257.13C281.379 254.094 281.223 251.768 280.255 248.862C279.265 248.862 278.275 248.862 277.255 248.862C277.372 246.486 277.497 244.112 277.63 241.737C277.67 241.017 277.71 240.297 277.752 239.556C278.126 233.595 278.966 227.825 280.048 221.948C280.285 218.412 279.406 216.182 278.255 212.862C278.349 210.116 278.349 210.116 278.755 207.424C279.321 202.648 278.601 199.491 277.255 194.862C277.345 190.362 277.83 186.135 279.255 181.862C277.458 179.643 277.458 179.643 275.008 179.635C273.641 179.65 273.641 179.65 272.247 179.667C271.261 179.673 270.275 179.679 269.259 179.686C268.226 179.703 267.194 179.72 266.13 179.737C265.089 179.746 264.049 179.755 262.977 179.764C260.403 179.788 257.829 179.821 255.255 179.862C254.969 180.67 254.682 181.478 254.388 182.311C254.014 183.153 253.64 183.995 253.255 184.862C250.287 185.997 247.929 185.844 244.755 185.674C240.951 185.601 238.059 186.541 234.489 187.823C227.336 190.087 220.521 190.546 213.097 190.646C210.992 190.674 208.89 190.73 206.786 190.79C194.344 191.097 183.451 190.973 173.255 182.862C171.38 179.612 171.38 179.612 170.255 176.862C169.595 176.862 168.935 176.862 168.255 176.862C168.167 173.341 168.114 169.821 168.067 166.299C168.042 165.309 168.017 164.318 167.991 163.297C167.932 157.334 168.388 153.126 171.255 147.862C171.585 147.532 171.915 147.202 172.255 146.862C172.39 143.198 172.419 140.356 171.255 136.862C170.98 134.712 170.747 132.558 170.536 130.401C170.408 129.125 170.281 127.849 170.149 126.534C170.017 125.185 169.886 123.836 169.755 122.487C169.497 119.854 169.236 117.221 168.974 114.588C168.859 113.419 168.745 112.249 168.628 111.044C168.308 107.944 168.308 107.944 167.73 105.245C167.243 102.803 167.051 100.485 166.938 97.9985C166.876 96.6692 166.876 96.6692 166.811 95.313C166.772 94.401 166.733 93.489 166.692 92.5493C166.649 91.618 166.606 90.6866 166.561 89.727C166.456 87.4388 166.354 85.1504 166.255 82.8618C165.53 82.867 164.805 82.8723 164.058 82.8777C160.707 82.8987 157.356 82.9116 154.005 82.9243C152.295 82.9369 152.295 82.9369 150.552 82.9497C143.92 82.9685 137.469 82.699 130.885 81.883C127.863 81.8586 126.012 82.6828 123.255 83.8618ZM193.255 94.8618C192.451 101.725 192.095 108.486 192.087 115.393C192.083 116.351 192.08 117.309 192.077 118.295C192.072 120.299 192.069 122.302 192.069 124.305C192.067 127.381 192.049 130.457 192.03 133.534C192.027 135.487 192.025 137.44 192.024 139.393C192.017 140.314 192.01 141.235 192.003 142.183C192.006 143.032 192.009 143.88 192.012 144.754C192.01 145.501 192.009 146.248 192.008 147.018C192.098 149.11 192.098 149.11 194.255 150.862C194.782 156.837 194.557 163.001 193.255 168.862C197.545 169.061 200.334 168.528 204.255 166.862C205.307 166.738 206.359 166.614 207.442 166.487C210.392 166.172 210.392 166.172 211.63 163.799C211.939 162.84 211.939 162.84 212.255 161.862C213.523 161.893 213.523 161.893 214.817 161.924C218.387 161.859 221.729 161.418 225.255 160.862C227.588 160.528 229.921 160.195 232.255 159.862C232.75 158.377 232.75 158.377 233.255 156.862C238.967 155.251 242.941 156.772 248.255 158.862C249.63 157.572 250.962 156.235 252.255 154.862C252.255 154.202 252.255 153.542 252.255 152.862C253.026 152.752 253.796 152.643 254.591 152.53C255.594 152.371 256.596 152.213 257.63 152.049C258.627 151.898 259.625 151.748 260.653 151.592C263.583 151.074 263.583 151.074 265.255 147.862C262.464 145.847 262.464 145.847 259.899 144.94C252.568 141.951 245.976 136.835 239.813 131.928C238.294 130.674 238.294 130.674 236.255 130.862C236.255 130.202 236.255 129.542 236.255 128.862C234.573 127.494 234.573 127.494 232.442 126.237C231.735 125.791 231.027 125.345 230.298 124.885C228.189 123.638 228.189 123.638 225.255 123.862C225.007 123.326 224.76 122.789 224.505 122.237C221.706 116.92 219.948 113.932 214.255 111.862C210.483 109.415 207.08 106.927 204.317 103.362C201.253 99.6478 197.316 97.387 193.255 94.8618Z" fill="black"/>
</svg>
