<svg width="302" height="310" viewBox="0 0 302 310" fill="none" xmlns="http://www.w3.org/2000/svg">
<path d="M160.086 0C160.663 0.165 161.241 0.33 161.836 0.5C164.353 1.14462 164.353 1.14462 168.086 1C171.086 3 171.086 3 172.086 6C173.687 7.54233 173.687 7.54233 175.691 8.99609C176.428 9.5549 177.165 10.1137 177.924 10.6895C178.699 11.2663 179.475 11.8432 180.273 12.4375C181.407 13.297 181.407 13.297 182.564 14.1738C188.614 18.7336 194.381 22.918 201.461 25.75C202.52 26.178 203.58 26.6059 204.672 27.0469C205.468 27.3614 206.265 27.6759 207.086 28C207.086 28.66 207.086 29.32 207.086 30C208.076 30.33 209.066 30.66 210.086 31C213.086 35.3333 213.086 35.3333 213.086 38C213.921 38.0387 213.921 38.0387 214.773 38.0781C220.757 38.5229 224.913 40.0613 230.086 43C230.83 43.3609 231.573 43.7219 232.34 44.0938C236.605 46.2299 239.434 48.1882 242.336 52C246.065 56.6423 250.388 57.8977 255.906 59.7773C260.182 61.4213 263.882 63.6993 267.086 67C267.086 67.66 267.086 68.32 267.086 69C268.2 69.2475 269.313 69.495 270.461 69.75C274.086 71 274.086 71 275.523 73.125C275.709 73.7437 275.895 74.3625 276.086 75C277.076 75 278.066 75 279.086 75C279.54 76.1137 279.993 77.2275 280.461 78.375C281.811 81.962 281.811 81.962 284.086 84C283.879 85.9883 283.879 85.9883 283.273 88.3125C283.076 89.1169 282.879 89.9212 282.676 90.75C282.233 92.4385 281.786 94.1258 281.336 95.8125C280.882 98.0189 280.882 98.0189 282.023 99.875C283.589 103.005 283.324 105.542 283.086 109C282.722 109.906 282.359 110.812 281.984 111.746C280.88 115.747 281.526 118.757 282.461 122.688C284.515 132.429 284.486 140.773 282.539 150.562C281.776 154.667 281.613 157.804 283.156 161.707C284.277 165.676 283.877 168.318 283.211 172.375C281.54 183.807 280.46 195.151 285.086 206C288.43 214.817 291.121 223.534 293.289 232.699C294.031 235.975 294.031 235.975 295.086 239C295.339 241.266 295.541 243.538 295.711 245.812C295.854 247.617 295.854 247.617 296 249.457C296.086 253 296.086 253 295.519 256.242C295.002 259.536 295.944 261.145 297.394 264.066C298.461 267.05 298.16 269.863 297.898 272.984C298.145 275.63 299.235 276.168 301.086 278C302.249 281.698 302.031 284.496 301.211 288.25C300.936 289.557 300.936 289.557 300.656 290.891C300.086 293 300.086 293 299.086 294C297.005 294.1 294.92 294.13 292.836 294.125C291.127 294.129 291.127 294.129 289.383 294.133C286.086 294 286.086 294 283.747 293.369C280.353 292.898 278.397 293.743 275.207 294.957C267.668 297.427 260.989 297.226 253.148 296.688C250.619 296.54 248.089 296.398 245.559 296.262C244.458 296.189 243.357 296.117 242.223 296.042C239.04 295.999 236.208 296.422 233.086 297C229.82 297.028 226.569 296.937 223.305 296.84C219.868 297.011 217.312 297.844 214.086 299C205.976 300.67 197.836 301.245 189.586 301.719C185.8 302.023 182.248 302.697 178.551 303.527C174.691 304.267 170.81 304.503 166.894 304.777C164.569 304.962 162.324 305.253 160.023 305.625C156.67 305.944 154.023 305.861 150.711 305.5C143.642 304.758 137.283 305.083 130.586 307.562C122.415 310.477 114.485 308.902 106.164 307.242C102.583 306.96 100.475 307.866 97.0859 309C93.9985 309.268 90.9326 309.235 87.8359 309.188C87.0212 309.187 86.2065 309.186 85.3671 309.186C79.3676 309.141 79.3676 309.141 77.0859 308C75.02 308.171 72.9577 308.388 70.8984 308.625C64.1618 309.174 58.5736 308.273 52.0273 306.758C47.7696 305.846 43.5522 305.66 39.2109 305.5C33.9719 305.287 29.4388 304.799 24.5546 302.832C18.6183 300.831 12.2466 300.066 6.08587 299C5.08587 295.125 5.08587 295.125 5.08587 294C4.09587 293.67 3.10587 293.34 2.08587 293C1.76582 285.781 1.79213 280.461 5.08587 274C7.07068 268.42 7.25654 263.859 6.83587 258.062C6.77593 256.923 6.77593 256.923 6.71478 255.76C6.4832 252.095 6.05841 248.898 5.09515 245.325C3.8984 240.67 3.64018 236.12 3.45306 231.332C3.4115 230.417 3.36994 229.501 3.32712 228.558C3.24101 226.622 3.15888 224.687 3.0805 222.751C2.96303 219.866 2.83221 216.981 2.69915 214.096C2.27899 204.62 1.99918 195.15 1.96087 185.664C1.95474 184.83 1.94861 183.995 1.94229 183.136C1.94997 176.85 2.52456 170.716 3.54928 164.515C4.2327 159.992 3.59417 157.256 2.08587 153C-0.0969381 139.238 -1.80927 121.59 5.08587 109C4.42587 109 3.76587 109 3.08587 109C0.913465 105.741 0.865502 105.076 1.07415 101.359C1.12121 100.453 1.16826 99.547 1.21673 98.6133C1.30664 97.196 1.30664 97.196 1.39837 95.75C1.44671 94.8206 1.49505 93.8912 1.54486 92.9336C1.7661 88.9736 2.05452 85.1753 2.75384 81.2656C3.15255 77.3442 2.19658 74.7733 1.08587 71C0.700618 67.3809 0.579294 63.7615 0.460874 60.125C0.422202 59.1827 0.38353 58.2404 0.343686 57.2695C0.236939 54.5132 0.154687 51.7576 0.0858735 49C0.0625093 48.1437 0.039145 47.2875 0.0150728 46.4053C-0.0604743 41.6793 0.0341837 38.7559 3.08587 35C4.07587 34.505 4.07587 34.505 5.08587 34C5.25411 29.6258 5.14279 26.8396 3.08587 23C4.31862 19.3018 5.9779 18.6479 9.30072 16.8398C11.0859 16 11.0859 16 13.4609 15.4375C14.2652 15.2209 14.2652 15.2209 15.0859 15C15.4159 14.01 15.7459 13.02 16.0859 12C16.8709 12.4937 17.656 12.9874 18.4648 13.4961C26.2356 18.3254 26.2356 18.3254 35.0859 20C35.9818 20.0864 36.8777 20.1727 37.8007 20.2617C44.2667 20.8771 50.7193 21.126 57.2109 21.1875C57.9455 21.2005 58.6801 21.2134 59.4369 21.2268C63.207 21.2334 64.8693 21.1444 68.0859 19C68.4159 18.34 68.7459 17.68 69.0859 17C70.7734 16.4375 70.7734 16.4375 73.0859 16C74.4162 15.6287 74.4162 15.6287 75.7734 15.25C79.1669 14.9939 80.2994 15.3719 83.3359 16.625C88.812 18.6728 92.8643 17.2095 98.0859 15C98.8013 14.612 99.5167 14.224 100.254 13.8242C100.858 13.5522 101.463 13.2802 102.086 13C103.076 13.495 103.076 13.495 104.086 14C104.416 13.34 104.746 12.68 105.086 12C108.086 12 108.086 12 110.336 12.1875C114.771 11.8851 118.484 9.82255 122.398 7.8125C126.543 6.55954 130.792 6.50508 135.086 7C136.076 7.66 137.066 8.32 138.086 9C140.902 9.06574 143.289 8.54132 146.086 8C146.416 7.34 146.746 6.68 147.086 6C151.208 3.93914 154.448 2.57838 159.086 3C159.416 2.01 159.746 1.02 160.086 0ZM140.719 28.4141C135.62 33.366 124.276 33.2088 117.387 33.75C115.008 34.0085 112.784 34.4927 110.461 35.0625C107.557 35.7655 105.068 36.0672 102.086 35.9375C97.4018 35.777 93.404 37.3207 89.0859 39C89.0859 39.66 89.0859 40.32 89.0859 41C84.4734 42.5456 79.6075 42.0481 74.8124 41.9609C70.9808 41.9196 67.2761 42.0526 63.4687 42.5C56.0252 43.317 48.5542 43.0558 41.0776 42.9795C39.1429 42.9615 37.2081 42.9494 35.2734 42.9375C34.1326 42.9259 32.9917 42.9143 31.8163 42.9023C29.1207 42.8097 29.1207 42.8097 27.0859 44C26.0581 46.9257 25.9794 49.6315 26.0234 52.7109C26.0317 53.6195 26.04 54.528 26.0485 55.4641C26.0608 56.4247 26.0732 57.3853 26.0859 58.375C26.1375 64.8926 26.0854 71.3176 25.5234 77.8125C25.1478 82.225 25.193 86.1509 25.8242 90.5195C26.56 97.4939 26.5772 104.793 25.5156 111.723C25.0589 115.206 25.7189 117.528 26.6718 120.863C27.2855 124.03 26.7953 126.868 26.371 130.043C26.0239 133.643 26.0855 137.203 26.1484 140.812C26.2405 147.15 25.6378 153.086 24.4257 159.328C23.9367 161.875 23.9367 161.875 24.5449 163.821C25.1916 166.426 25.3008 168.86 25.4023 171.543C25.4442 172.617 25.4861 173.692 25.5292 174.799C25.5882 176.476 25.5882 176.476 25.6484 178.188C25.6916 179.286 25.7347 180.385 25.7792 181.518C25.9524 186.128 26.1099 190.719 26.0234 195.332C25.9873 202.08 26.8411 208.794 27.5234 215.5C27.6598 216.876 27.7959 218.253 27.9316 219.629C28.4721 225.079 29.0216 230.525 29.6835 235.961C30.143 240.032 30.1582 244.033 30.0859 248.125C29.9815 259.1 30.5349 270.042 31.0859 281C38.6603 285.305 38.6603 285.305 47.1484 286.375C48.0675 286.341 48.9866 286.308 49.9335 286.273C52.064 286.226 52.064 286.226 53.0859 285C54.9413 284.832 54.9413 284.832 57.2734 284.812C58.0301 284.798 58.7867 284.784 59.5663 284.77C62.0859 285 62.0859 285 64.9062 286.047C68.71 287.187 71.904 286.877 75.7734 286.438C81.9909 285.87 86.9646 286.265 92.9492 288.309C96.0546 289.313 97.9221 289.052 101.023 288.062C107.577 286.15 114.867 284.81 121.336 287.438C125.621 289.139 129.773 289.376 134.336 289.438C135.022 289.459 135.708 289.481 136.415 289.504C141.34 289.485 143.482 288.208 147.086 285C150.357 284.713 152.997 284.67 156.148 285.625C158.248 286.203 158.248 286.203 160.793 285.02C164.359 283.915 166.997 283.896 170.711 284.062C176.558 284.16 181.287 283.322 186.875 281.734C193.729 280.167 201.168 279.794 208.174 280.087C211.484 280.215 213.618 280.285 216.492 278.535C220.375 276.237 224.15 276.509 228.586 276.438C235.472 276.295 240.213 275.915 246.086 272C251.816 269.912 256.964 269.755 263.023 269.875C263.898 269.884 264.773 269.893 265.674 269.902C267.811 269.926 269.949 269.962 272.086 270C272.526 261.74 272.159 254.966 269.238 247.211C267.884 243.436 266.867 239.639 265.898 235.75C265.732 235.1 265.565 234.451 265.393 233.782C262.901 223.708 262.329 213.485 263.648 203.188C264.619 194.566 263.722 185.73 262.023 177.25C259.409 164.101 259.409 164.101 262.102 159.121C264.334 154.311 263.007 149.091 261.917 144.101C260.156 135.993 260.049 129.483 261.543 121.27C262.067 118.111 262.178 115.194 262.086 112C261.203 112.326 260.32 112.652 259.41 112.988C252.848 115.378 246.369 117.516 239.598 119.246C237.1 119.996 234.921 120.972 232.586 122.125C228.211 124.222 224.184 124.514 219.371 124.629C218.617 124.751 217.863 124.874 217.086 125C216.426 125.99 215.766 126.98 215.086 128C211.926 128.957 211.926 128.957 208.023 129.812C201.377 131.387 196.517 133.787 191.086 138C187.976 139.555 184.782 138.91 181.398 138.688C180.355 138.634 180.355 138.634 179.291 138.58C174.038 138.251 168.511 137.889 164.23 134.555C158.921 127.86 155.409 121.714 155.086 113C155.034 111.752 154.983 110.504 154.93 109.219C154.599 97.2139 154.599 97.2139 156.648 92.5625C158.948 86.8623 157.6 81.7938 156.086 76C155.426 76 154.766 76 154.086 76C153.971 68.2287 154.182 60.6105 154.965 52.875C155.2 50.0214 155.2 50.0214 154.551 47.3594C153.955 44.3371 154.839 42.1117 155.672 39.2031C156.384 35.4118 155.731 31.7683 155.086 28C152.19 27.1821 149.531 26.8111 146.523 26.75C145.759 26.7242 144.995 26.6984 144.207 26.6719C142.011 26.7929 142.011 26.7929 140.719 28.4141ZM174.086 36C174.23 36.6394 174.375 37.2788 174.523 37.9375C174.964 40.334 175.277 42.6443 175.523 45.0625C175.89 48.602 176.444 52.0629 177.086 55.5625C178.808 65.7508 180.231 76.0107 177.086 86C176.634 90.4245 177.453 93.0042 179.352 96.9883C180.756 100.836 180.849 104.938 181.086 109C187.525 109.35 192.416 109.257 198.086 106C198.581 104.515 198.581 104.515 199.086 103C199.894 103.058 200.702 103.116 201.535 103.176C208.203 103.736 208.203 103.736 213.711 100.625C214.495 99.7588 215.278 98.8925 216.086 98C219.369 96.957 222.683 96.4891 226.086 96C229.891 95.2982 233.429 94.2756 237.086 93C237.086 92.34 237.086 91.68 237.086 91C238.419 90.6667 239.753 90.3333 241.086 90C241.643 89.835 242.2 89.67 242.773 89.5C245.95 88.8133 249.095 88.6476 252.336 88.4375C253.599 88.3537 254.862 88.2699 256.164 88.1836C257.128 88.123 258.092 88.0624 259.086 88C259.086 87.34 259.086 86.68 259.086 86C257.106 85.505 257.106 85.505 255.086 85C255.086 84.34 255.086 83.68 255.086 83C254.22 82.5669 253.353 82.1337 252.461 81.6875C250.419 80.6665 248.392 79.6127 246.398 78.5C240.266 75.7229 233.681 74.2642 227.086 73C226.756 72.01 226.426 71.02 226.086 70C224.766 70 223.446 70 222.086 70C222.086 69.34 222.086 68.68 222.086 68C220.106 67.34 218.126 66.68 216.086 66C216.086 65.34 216.086 64.68 216.086 64C211.968 59.882 207.917 57.9341 202.496 55.9062C194.544 52.9162 194.544 52.9162 193.086 50C192.426 50 191.766 50 191.086 50C190.756 49.01 190.426 48.02 190.086 47C188.085 44.6349 187.118 44.0107 184.086 43C182.731 41.6887 181.399 40.3531 180.086 39C177.417 36.609 177.417 36.609 174.086 36Z" fill="black"/>
<path d="M204.086 172C206.396 172.33 208.706 172.66 211.086 173C211.581 174.485 211.581 174.485 212.086 176C214.156 176.913 214.156 176.913 216.586 177.5C219.055 178.156 219.055 178.156 221.086 179C222.237 182.455 222.08 184.991 221.961 188.625C221.897 194.811 222.731 199.31 225.086 205C225.943 204.905 226.8 204.809 227.684 204.711C239.726 203.543 239.726 203.543 245.086 206C246.774 207.645 248.439 209.313 250.086 211C252.124 212.122 254.181 213.085 256.316 214.008C258.086 215 258.086 215 260.086 218C260.316 220.848 260.316 220.848 260.273 224.062C260.267 225.126 260.261 226.189 260.254 227.285C260.086 230 260.086 230 259.086 232C255.548 233.179 252.744 233.113 249.012 233.098C247.986 233.096 247.986 233.096 246.939 233.093C244.759 233.088 242.579 233.075 240.398 233.062C238.919 233.057 237.439 233.053 235.959 233.049C232.335 233.038 228.71 233.021 225.086 233C225.416 233.99 225.746 234.98 226.086 236C226.318 239.746 226.271 243.498 226.273 247.25C226.286 248.275 226.298 249.3 226.311 250.355C226.321 255.974 225.981 260.697 224.086 266C218.921 266.316 214.354 266.128 210.086 263C207.772 260.176 205.937 257.14 204.086 254C201.818 250.315 201.818 250.315 199.086 247C199.15 245.018 199.287 243.038 199.461 241.062C199.551 239.981 199.641 238.899 199.734 237.785C200.086 235 200.086 235 201.086 233C200.101 233.331 199.116 233.663 198.102 234.004C193.932 235.187 190.137 235.214 185.836 234.938C185.094 234.89 184.353 234.843 183.589 234.794C176.622 234.199 169.519 232.68 164.566 227.371C163.461 225.75 163.461 225.75 162.086 223C161.756 222.67 161.426 222.34 161.086 222C160.711 219.25 160.711 219.25 161.086 216C163.586 213.312 163.586 213.312 166.086 211C166.086 210.01 166.086 209.02 166.086 208C173.905 203.489 180.966 205.667 189.176 207.805C191.818 208.519 194.454 209.249 197.086 210C197.063 209.252 197.04 208.505 197.016 207.734C196.998 206.75 196.98 205.765 196.961 204.75C196.938 203.775 196.915 202.801 196.891 201.797C197.09 198.942 197.72 197.462 199.086 195C199.337 192.374 199.337 192.374 199.086 190C198.756 189.67 198.426 189.34 198.086 189C197.705 184.049 197.967 180.958 201.086 177C201.746 177 202.406 177 203.086 177C203.416 175.35 203.746 173.7 204.086 172Z" fill="black"/>
</svg>
