<svg width="335" height="223" viewBox="0 0 335 223" fill="none" xmlns="http://www.w3.org/2000/svg">
<path d="M197 0C198.114 0.185625 199.227 0.37125 200.375 0.5625C203.826 1.31681 203.826 1.31681 206 0C206.99 0.33 207.98 0.66 209 1C210.605 0.969611 212.21 0.903596 213.812 0.8125C218.691 0.769835 221.288 1.6498 225 5C228 9.2 228 9.2 228 12C228.639 12.3094 229.279 12.6188 229.938 12.9375C232 14 232 14 233 15C233.041 16.6662 233.043 18.3339 233 20C233.55 19.4998 234.101 18.9997 234.668 18.4844C237.583 16.6292 238.928 16.8096 242.312 17.25C243.292 17.3673 244.272 17.4846 245.281 17.6055C247.296 17.8978 249.306 18.2217 251.312 18.5625C254.963 18.9956 258.33 18.9208 262 18.8125C268.038 18.7868 271.4 19.0134 276 23C277.069 25.3025 278.072 27.6372 279 30C279.846 30.6187 280.691 31.2375 281.562 31.875C286.677 36.3335 286.107 43.738 286.562 50.125C286.635 51.3161 286.707 52.5072 286.781 53.7344C287.014 57.2056 287.429 60.5712 288 64C296.084 63.8156 296.084 63.8156 303.688 61.4375C311.122 58.2113 317.449 60.1629 324.812 62.832C327 64 327 64 328 67C328.99 67.4125 329.98 67.825 331 68.25C331.99 68.8275 332.98 69.405 334 70C336.486 80.496 332.281 91.6586 329 101.625C328.751 102.383 328.502 103.14 328.246 103.921C327.162 107.091 326.118 109.811 324.34 112.668C322.714 115.498 322.636 117.444 322.562 120.688C322.26 125.949 321.041 129.788 318.914 134.562C317.659 137.909 317.448 141.098 317.195 144.641C316.717 150.419 314.932 155.248 312.625 160.5C310.612 165.171 309.203 169.804 308.062 174.75C306.129 183.138 303.185 191.016 300 199C299.34 199 298.68 199 298 199C297.963 199.748 297.925 200.495 297.887 201.266C297.788 202.743 297.788 202.743 297.688 204.25C297.629 205.225 297.571 206.199 297.512 207.203C296.804 211.073 295.396 213.019 292.199 215.266C285.403 217.535 276.785 215.062 269.988 213.422C265.482 212.466 262.133 212.434 258 214.5C252.922 217.039 248.373 216.106 243 215C242.67 215.33 242.34 215.66 242 216C239.726 216.064 237.45 216.059 235.176 216.027C233.739 216.015 232.302 216.002 230.865 215.99C228.61 215.966 226.355 215.938 224.1 215.904C215.355 215.78 207.141 216.151 198.481 217.557C192.168 218.36 185.851 218.127 179.5 218C176.886 217.949 174.271 217.907 171.656 217.875C170.52 217.852 169.384 217.829 168.213 217.805C164.821 218.011 162.206 218.93 159 220C156.55 219.952 156.55 219.952 154.172 219.539C153.289 219.397 152.406 219.255 151.496 219.109C150.137 218.87 150.137 218.87 148.75 218.625C138.14 216.813 125.059 214.63 115.375 220.625C110.033 223.718 102.515 221.813 96.6133 221.121C93.859 220.993 91.6947 221.446 89 222C77.6451 222.735 64.6082 222.828 54.6484 216.508C52.5049 214.547 51.9531 212.732 51 210C50.4638 208.948 49.9275 207.896 49.375 206.812C48 204 48 204 48 202C47.34 202 46.68 202 46 202C46.0928 200.329 46.0928 200.329 46.1875 198.625C46.1745 191.253 43.7116 185.156 40.0254 178.872C38.3233 175.765 37.0966 172.507 35.875 169.188C35.6128 168.486 35.3505 167.785 35.0803 167.062C33.4225 162.507 32.3352 158.09 31.5625 153.301C30.6769 149.678 28.8608 146.598 27.1016 143.332C25.6159 140.187 25.3579 137.436 25 134C24.34 133.34 23.68 132.68 23 132C22.6914 129.793 22.6914 129.793 22.5625 127.188C22.2324 123.028 21.5535 120.405 19 117C17.6456 114.291 17.935 111.991 18 109C16.515 108.505 16.515 108.505 15 108C15.0825 106.742 15.165 105.484 15.25 104.188C15.282 99.1201 13.7488 95.1897 11.8906 90.5312C10.8551 87.5882 10.665 85.0988 11 82C10.34 82 9.68 82 9 82C8.74477 80.4203 8.74477 80.4203 8.48438 78.8086C7.24812 71.3902 5.8608 64.1605 3.75 56.9375C2.20082 51.4332 1.64074 47.5503 3 42C2.01 42 1.02 42 0 42C1.38829 37.4565 3.34772 35.9052 7 33C8.0077 31.6881 8.98499 30.3525 9.9375 29C12.6104 25.3075 14.9766 23.1458 19 21C19.99 21 20.98 21 22 21C22 20.01 22 19.02 22 18C26.0337 16.1809 29.6119 14.7116 34 14C34.7219 13.7938 35.4438 13.5875 36.1875 13.375C38 13 38 13 40 14C42.1838 13.9774 42.1838 13.9774 44.5625 13.6875C45.3682 13.6089 46.1738 13.5302 47.0039 13.4492C47.6626 13.301 48.3213 13.1527 49 13C49.33 12.34 49.66 11.68 50 11C51.0725 11.0206 52.145 11.0412 53.25 11.0625C56.2361 11.0127 58.2119 10.8094 61 10C62.0106 9.835 63.0213 9.67 64.0625 9.5C67.0484 9.06861 67.0484 9.06861 70 8C72.892 8.30766 75.2941 8.62353 77.875 10C81.1359 11.5345 84.4234 11.6026 88 12C88.99 12.33 89.98 12.66 91 13C91.33 12.34 91.66 11.68 92 11C92 11.66 92 12.32 92 13C92.7013 12.8556 93.4025 12.7113 94.125 12.5625C99.8672 11.439 105.152 10.7793 111 11C111.33 10.34 111.66 9.68 112 9C114.801 8.58594 114.801 8.58594 118.312 8.375C119.464 8.30023 120.615 8.22547 121.801 8.14844C124.198 8.03719 126.6 8 129 8C129.33 7.34 129.66 6.68 130 6C131.65 6.66 133.3 7.32 135 8C135.33 7.34 135.66 6.68 136 6C136.701 6.165 137.402 6.33 138.125 6.5C141.139 7.02415 143.947 7.071 147 7C147 6.34 147 5.68 147 5C148.196 5.18563 149.393 5.37125 150.625 5.5625C154.283 6.03112 157.379 5.81481 161 5C161 4.34 161 3.68 161 3C167.441 1.13082 171.431 0.824758 177.641 3.32422C182.083 4.59668 186.503 3.70087 191 3C192.217 2.81437 193.434 2.62875 194.688 2.4375C195.832 2.22094 195.832 2.22094 197 2C197 1.34 197 0.68 197 0ZM179.062 29.5625C175.539 31.2164 173.42 31.1149 169.617 30.9805C162.789 31.0314 155.948 32.5409 149.312 34.0625C134.223 37.0757 118.283 36.087 102.973 35.9634C102.222 35.9591 101.472 35.9548 100.699 35.9503C99.2801 35.942 97.8615 35.9295 96.4429 35.9122C91.4273 35.8868 87.3118 36.5707 82.5625 38.125C77.4351 39.4605 72.4633 38.7014 67.2461 38.2266C63.6596 37.9762 60.5438 38.4305 57 39C56.0332 38.942 55.0664 38.884 54.0703 38.8242C43.9996 38.2419 34.4645 40.22 26 46C23.6596 48.9045 22.6033 51.2575 23 55C23.9655 56.6869 24.9712 58.351 26 60C26.8893 62.3967 27.7187 64.816 28.5 67.25C29.8084 71.3197 31.1324 75.3685 32.625 79.375C34.3443 84.3896 34.9202 89.6247 35.7283 94.8445C36.4206 98.9015 37.1287 101.857 39.6875 105.188C42.3936 108.737 42.1465 111.414 41.9375 115.812C41.6908 122.282 42.9473 125.559 46.3516 130.945C48.4014 134.744 49.4536 138.535 50.5625 142.688C52.2371 148.871 54.0489 153.842 58 159C58.33 159 58.66 159 59 159C59.0864 158.129 59.1727 157.257 59.2617 156.359C60.295 147.6 61.7741 138.1 67.5859 131.086C69.5261 128.224 69.7445 125.658 70.1875 122.25C70.4253 120.494 70.4253 120.494 70.668 118.703C70.7775 117.811 70.8871 116.919 71 116C71.66 116 72.32 116 73 116C73 115.34 73 114.68 73 114C73.66 114 74.32 114 75 114C75.2307 113.417 75.4615 112.835 75.6992 112.234C77.6212 107.403 79.5912 102.598 81.625 97.8125C83.0188 94.5048 84.2834 91.2864 85.1875 87.8125C85.4556 86.8844 85.7237 85.9563 86 85C86.66 84.67 87.32 84.34 88 84C87.505 80.04 87.505 80.04 87 76C87.66 76 88.32 76 89 76C90.355 74.6887 91.6867 73.3531 93 72C93.99 71.34 94.98 70.68 96 70C95.34 70 94.68 70 94 70C94 69.34 94 68.68 94 68C94.9488 68.2062 95.8975 68.4125 96.875 68.625C97.9062 68.7488 98.9375 68.8725 100 69C100.99 68.01 100.99 68.01 102 67C107.016 66.4081 112.073 67.0145 117 68C117.949 68.1444 118.897 68.2887 119.875 68.4375C123 69 123 69 126.75 70.125C131.631 71.3824 136.072 70.7151 141 70C142.541 69.8104 144.083 69.6228 145.625 69.4375C146.739 69.2931 147.852 69.1488 149 69C149 68.34 149 67.68 149 67C149.743 66.8556 150.485 66.7113 151.25 66.5625C153.875 66.0639 153.875 66.0639 155.91 65.4458C158.177 64.9622 159.891 65.0365 162.188 65.3047C162.969 65.3936 163.75 65.4826 164.555 65.5742C165.362 65.6735 166.169 65.7727 167 65.875C168.21 66.0123 168.21 66.0123 169.445 66.1523C173.044 66.574 176.494 67.0635 180 68C180 67.34 180 66.68 180 66C186.839 64.8524 191.617 65.3719 198.188 67.8125C200.14 68.2247 200.14 68.2247 201.82 66.5977C204.167 64.8777 205.863 64.2527 208.688 63.625C209.475 63.4316 210.263 63.2383 211.074 63.0391C213.998 63 215.497 63.4444 218.191 64.4453C223.288 66.2806 227.877 66.3806 233.25 66.25C234.625 66.2336 234.625 66.2336 236.028 66.2168C242.145 66.1177 248.218 65.8154 254.309 65.2188C257.216 64.9824 260.084 64.9656 263 65C262.835 64.1544 262.67 63.3087 262.5 62.4375C262 59 262 59 262.125 55.4375C261.984 51.5703 261.409 49.9903 259 47C255.006 43.7001 252.004 43.8267 247.1 44.2383C245.412 44.4124 243.725 44.5868 242.037 44.7617C236.793 45.2011 233.561 45.0104 229 42C227.314 40.3526 225.644 38.6893 224 37C223.34 37 222.68 37 222 37C222 36.34 222 35.68 222 35C221.34 35 220.68 35 220 35C219.773 34.2369 219.546 33.4737 219.312 32.6875C217.6 29.1809 216.604 28.5543 213 27C209.223 26.6072 205.481 26.6732 201.688 26.75C200.68 26.7552 199.673 26.7603 198.635 26.7656C188.518 26.6298 188.518 26.6298 179.062 29.5625ZM256.25 86C249.03 86.8052 242.113 87.1393 234.848 86.7773C231.472 87.0413 229.83 88.2089 227 90C220.198 91.5043 213.382 90.9329 206.531 90.0586C203.75 89.752 203.75 89.752 201 92C198.922 92.1953 198.922 92.1953 196.535 92.125C195.659 92.1083 194.782 92.0916 193.879 92.0745C192.949 92.0499 192.02 92.0253 191.062 92C184.042 91.89 177.633 92.222 170.734 93.625C166.593 94.1929 162.656 93.6544 158.516 93.2344C151.602 92.7734 142.95 92.3423 136.543 95.0312C132.988 96.3857 129.559 96.2538 125.812 96.1875C124.687 96.1778 124.687 96.1778 123.539 96.168C117.979 96.0913 112.519 95.7009 107 95C106.046 96.9078 105.093 98.8161 104.145 100.727C103.43 102.147 102.7 103.56 101.949 104.961C97.6693 113.058 95.9015 121.248 94.5352 130.25C94.0678 132.652 93.4863 134.499 92.4375 136.688C91.1511 139.652 90.7575 141.373 90.5 144.5C90.1201 148.832 88.9338 152.063 87 156C86.4219 157.228 86.4219 157.228 85.832 158.48C82.4641 165.496 82.4641 165.496 79.8125 168.375C77.2817 172.04 77.1 175.624 76.5039 179.984C75.8432 183.939 74.4851 187.287 73 191C73 191.99 73 192.98 73 194C75.2277 194.506 77.4572 195.005 79.6875 195.5C80.9289 195.778 82.1702 196.057 83.4492 196.344C88.4384 197.266 90.8325 197.696 95.25 195.062C97.7834 193.264 97.7834 193.264 99 192C99.6806 192.289 100.361 192.577 101.062 192.875C107.308 195.267 112.861 196.387 119.5 196.375C120.523 196.377 120.523 196.377 121.566 196.379C125.271 196.298 127.793 195.8 131 194C133.576 193.422 136.154 192.995 138.758 192.562C141.185 192.158 141.185 192.158 143 190C146.507 188.831 147.358 189.252 150.75 190.438C156.117 192.138 160.486 192.856 165.938 191C169.845 189.724 172.895 189.865 177 190C178.961 190 180.922 189.989 182.883 189.965C183.953 189.956 185.023 189.947 186.125 189.938C187.2 189.926 188.275 189.914 189.383 189.902C192 190 192 190 193 191C194.395 191.047 195.792 191.037 197.188 191C200.066 190.954 202.399 191.077 205.25 191.625C208.461 192.063 210.137 191.431 213 190C213 189.34 213 188.68 213 188C214.052 188.206 215.104 188.412 216.188 188.625C219.841 189.298 219.841 189.298 222.352 187.969C225.697 186.745 227.721 187.177 231.188 187.875C235.069 188.695 235.069 188.695 239 189C239.33 188.34 239.66 187.68 240 187C241.396 187.456 242.792 187.915 244.188 188.375C245.015 188.647 245.843 188.919 246.695 189.199C249 190 249 190 251.562 191.188C255.158 192.386 258.309 192.766 262 192C264.742 190.601 267.254 189.04 269.801 187.312C272.387 185.769 274.064 186 277 186C279.736 179.228 282.373 172.424 284.949 165.59C286 163 286 163 287 162C287.273 160.561 287.491 159.112 287.684 157.66C287.807 156.761 287.93 155.862 288.057 154.936C288.182 153.987 288.308 153.039 288.438 152.062C289.382 144.98 290.513 137.991 292 131C292.66 131 293.32 131 294 131C295.765 129.23 295.765 129.23 297 127C296.67 126.01 296.34 125.02 296 124C295.01 124.495 295.01 124.495 294 125C294.144 124.397 294.289 123.793 294.438 123.172C294.623 122.373 294.809 121.573 295 120.75C295.186 119.961 295.371 119.172 295.562 118.359C296.122 115.744 296.122 115.744 296 112C296.66 112 297.32 112 298 112C300.485 107.567 301.531 103.847 302.125 98.8125C302.925 92.2261 302.925 92.2261 304 89C299.6 87.3499 295.685 86.6524 291 86.375C289.237 86.2629 289.237 86.2629 287.438 86.1484C285.189 86.0514 282.938 86.0125 280.688 86.0391C278 86 278 86 276 85C269.376 84.5688 262.822 85.2299 256.25 86Z" fill="black"/>
</svg>
