<svg width="323" height="327" viewBox="0 0 323 327" fill="none" xmlns="http://www.w3.org/2000/svg">
<path d="M209.888 0C212.763 0.1875 212.763 0.1875 215.888 1C216.605 2.64552 217.271 4.31422 217.888 6C220.283 7.32482 220.283 7.32482 222.888 8C226.609 9.24055 227.023 10.4265 229.075 13.6875C231.451 17.2414 233.509 19.7073 237.075 22.0625C241.668 25.1867 242.942 28.9598 244.888 34C247.653 39.4278 250.444 41.0815 255.962 43.1406C257.888 44 257.888 44 258.888 46C260.931 46.7324 260.931 46.7324 263.388 47.3125C270.675 49.3795 276.682 52.4474 281.888 58C283.087 58.8258 284.296 59.6373 285.513 60.4375C288.682 62.6176 289.605 64.3487 290.888 68C292.821 69.3007 292.821 69.3007 294.888 70C295.548 70.33 296.208 70.66 296.888 71C296.888 71.66 296.888 72.32 296.888 73C297.723 73.3094 297.723 73.3094 298.575 73.625C301.895 75.5992 304.266 77.4896 305.888 81C306.198 84.3138 306.133 87.492 305.993 90.8164C305.906 93.4576 306.024 95.7219 306.45 98.3125C306.844 101.634 306.643 104.271 306.153 107.551C305.069 117.553 306.011 127.18 307.888 137C308.068 138.373 308.237 139.748 308.388 141.125C308.76 144.012 309.25 146.676 309.888 149.5C310.907 154.411 311.175 159.249 311.425 164.252C311.772 170.396 312.501 176.465 313.325 182.562C313.448 183.49 313.57 184.418 313.696 185.374C314.398 190.413 315.467 195.107 316.888 200C319.187 217.639 319.187 217.639 317.29 225.465C316.811 228.484 317.348 230.184 318.325 233.062C320.464 240.31 320.441 247.214 319.353 254.66C318.671 259.872 318.945 265.013 319.2 270.25C319.253 271.72 319.253 271.72 319.308 273.219C319.351 274.162 319.394 275.106 319.438 276.078C319.495 277.353 319.495 277.353 319.553 278.653C319.909 281.149 320.707 282.794 321.888 285C322.676 291.686 322.049 297.072 318.888 303C314.726 303.082 310.94 302.982 306.888 302C306.888 301.34 306.888 300.68 306.888 300C305.238 299.67 303.588 299.34 301.888 299C301.888 298.34 301.888 297.68 301.888 297C297.397 299.526 293.013 302.153 288.685 304.949C284.625 307.323 280.544 307.314 275.97 307.621C272.768 307.936 272.768 307.936 269.293 309.009C264.604 310.199 260.13 310.272 255.313 310.23C254.427 310.23 253.54 310.23 252.626 310.229C250.765 310.226 248.903 310.218 247.042 310.206C244.198 310.187 241.355 310.185 238.511 310.186C236.695 310.181 234.879 310.175 233.063 310.168C232.218 310.167 231.372 310.166 230.5 310.165C226.465 310.132 222.849 309.809 218.888 309C216.517 309.127 216.517 309.127 214.114 309.559C213.215 309.697 212.316 309.836 211.39 309.979C210.441 310.13 209.491 310.282 208.513 310.438C200.92 311.564 193.703 312.17 186.017 311.973C179.448 311.907 172.893 312.678 166.361 313.289C162.008 313.69 157.734 314.053 153.36 313.969C149.836 314 148.155 314.809 145.071 316.34C140.925 317.593 136.577 317.095 132.29 316.91C128.707 317.005 126.262 317.85 122.888 319C117.405 319.891 111.827 320.168 106.292 320.596C98.0247 321.254 90.0964 322.266 82.0127 324.125C74.363 325.83 66.9728 326.403 59.1377 326.438C57.6375 326.452 57.6375 326.452 56.1069 326.467C50.0318 326.396 45.3979 325.608 39.8877 323C37.5752 320.5 37.5752 320.5 35.8877 318C35.3566 317.564 34.8255 317.129 34.2783 316.68C32.2955 314.285 32.7206 312.673 32.9502 309.625C33.1229 305.135 33.1229 305.135 31.0752 301.188C29.9924 300.105 29.9924 300.105 28.8877 299C22.3987 287.772 23.5508 272.544 23.3559 259.949C23.322 257.945 23.2768 255.941 23.2314 253.938C23.2127 252.771 23.194 251.604 23.1748 250.402C22.7871 245.808 21.6527 241.7 19.7627 237.5C18.159 232.918 18.8153 228.456 19.5127 223.75C20.1837 218.279 19.0022 213.343 17.8877 208C17.0387 203.125 16.7897 198.88 17.8877 194C18.5477 194 19.2077 194 19.8877 194C18.8137 191.085 18.1096 189.222 15.8877 187C15.7928 184.324 15.8 181.733 15.8877 179.062C15.9945 173.826 15.8966 169.021 14.7627 163.875C13.7572 159.236 14.5661 156.587 15.8877 152C15.8663 145.984 15.4941 140.105 13.8252 134.312C12.4389 129.414 11.5393 122.697 13.8877 118C13.2277 118 12.5677 118 11.8877 118C9.14082 112.499 8.47348 108.162 8.38768 102.062C7.95663 88.9699 5.83475 76.2028 0.88768 64C-0.664335 59.9083 0.138874 56.2205 0.88768 52C1.54768 51.34 2.20768 50.68 2.88768 50C3.6889 46.7731 4.29282 43.5282 4.91112 40.2617C5.98688 36.6687 7.24178 34.6409 9.88768 32C10.8777 32 11.8677 32 12.8877 32C12.8877 31.01 12.8877 30.02 12.8877 29C18.5127 27.875 18.5127 27.875 21.8877 29C21.8877 29.99 21.8877 30.98 21.8877 32C23.5377 31.34 25.1877 30.68 26.8877 30C26.8877 29.34 26.8877 28.68 26.8877 28C30.041 27.2993 32.6149 27 35.8877 27C36.8158 26.505 37.7439 26.01 38.7002 25.5C42.8788 23.5336 46.5814 23.2538 51.0127 24.6875C53.0677 25.2468 53.0677 25.2468 55.1611 23.5234C58.3091 21.7646 59.8278 21.7413 63.3877 21.9375C70.4913 22.1244 77.4036 21.4669 84.4639 20.7107C88.3012 20.308 92.0463 19.9477 95.9072 20.0312C98.8971 20.3126 98.8971 20.3126 100.7 18.5C101.092 18.005 101.484 17.51 101.888 17C102.548 17 103.208 17 103.888 17C104.383 15.515 104.383 15.515 104.888 14C106.867 13.9731 108.846 13.9537 110.825 13.9375C111.927 13.9259 113.029 13.9143 114.165 13.9023C116.888 14 116.888 14 117.888 15C119.647 14.7963 121.397 14.511 123.138 14.1875C124.569 13.9303 124.569 13.9303 126.028 13.668C128.887 13.1002 128.887 13.1002 131.376 11.8594C135.406 10.4807 138.811 11.8203 142.853 12.7852C145.946 13.2755 145.946 13.2755 148.567 11.5625C153.395 9.29086 157.819 9.75532 163.075 9.9375C165.048 9.99742 167.02 10.0486 168.993 10.0898C170.295 10.1342 170.295 10.1342 171.623 10.1794C174.172 10.1626 174.172 10.1626 176.888 8C177.878 8 178.868 8 179.888 8C180.218 7.34 180.548 6.68 180.888 6C181.505 6.15598 182.123 6.31195 182.759 6.47266C188.545 7.80248 194.066 8.6443 199.888 7C200.218 6.34 200.548 5.68 200.888 5C202.589 4.53594 202.589 4.53594 204.325 4.0625C208.12 3.34379 208.12 3.34379 209.888 0ZM200.888 29C201.009 29.6922 201.13 30.3845 201.255 31.0977C202.247 36.89 203.088 42.6617 203.763 48.5C204.375 53.3481 205.313 57.6094 207.013 62.1875C208.956 67.4727 209.202 72.0039 208.931 77.6016C208.702 80.015 208.702 80.015 209.888 82C210.535 88.9883 210.006 96.8876 206.759 103.191C204.024 105.835 201.477 106.002 197.763 106.625C193.611 107.344 189.514 108.059 185.45 109.188C180.651 110.294 175.82 110.104 170.927 110.032C165.187 109.954 159.584 110.324 153.888 111C153.888 111.66 153.888 112.32 153.888 113C149.802 113.073 146.229 113.064 142.2 112.312C135.447 111.376 128.474 113.889 122.075 115.871C110.302 119.214 98.0138 118.265 85.8877 118C85.8877 118.66 85.8877 119.32 85.8877 120C79.8625 120.219 74.7197 119.452 68.8877 118C67.2223 117.66 65.5564 117.323 63.8877 117C63.8877 116.34 63.8877 115.68 63.8877 115C62.9596 114.423 62.0314 113.845 61.0752 113.25C57.5436 110.757 56.6775 108.835 54.8877 105C53.4027 104.505 53.4027 104.505 51.8877 104C51.8271 103.178 51.7665 102.355 51.7041 101.508C50.6818 87.8884 49.4629 74.4031 46.3291 61.0781C45.6202 57.7409 45.2575 54.39 44.8877 51C40.5977 51 36.3077 51 31.8877 51C29.2294 56.2616 28.5254 60.2137 29.0752 66.125C29.1615 67.2403 29.1615 67.2403 29.2495 68.3782C29.8861 76.0394 30.7914 83.6794 32.6846 91.1406C34.8033 99.5756 35.1414 107.334 34.9526 116.01C34.8406 121.29 35.0727 126.351 35.6694 131.598C36.0751 136.063 35.8561 140.532 35.6728 145.006C35.5797 149.641 36.2414 152.222 38.8877 156C39.7059 159.868 39.9064 163.507 39.8252 167.438C39.7701 171.088 40.428 174.037 41.4463 177.555C42.2819 182.184 41.9694 186.923 41.8603 191.609C41.744 194.776 41.744 194.776 42.3877 196.865C43.0021 199.488 42.965 201.85 42.915 204.543C42.9028 205.617 42.8905 206.692 42.8779 207.799C42.8431 210.038 42.8041 212.278 42.7607 214.518C42.7019 220.324 43.0169 225.478 44.4626 231.103C45.0364 233.664 44.9072 235.908 44.5752 238.5C44.4759 239.335 44.3767 240.171 44.2744 241.031C44.0648 242.64 43.8518 244.249 43.6206 245.855C42.7 252.907 42.7451 259.899 42.8877 267C42.878 268.829 42.878 268.829 42.8681 270.695C43.0397 278.262 44.096 282.493 49.2085 288.136C51.2638 290.417 52.31 292.679 53.3252 295.562C53.6333 296.409 53.9414 297.256 54.2588 298.129C54.4663 298.746 54.6739 299.364 54.8877 300C57.8042 300.167 57.8042 300.167 60.8877 300C61.5477 299.34 62.2077 298.68 62.8877 298C62.2071 297.175 61.5264 296.35 60.8252 295.5C58.0976 290.843 58.972 286.139 59.4673 281.004C59.9684 275.49 59.4861 271.265 57.8877 266C57.2277 266 56.5677 266 55.8877 266C55.9831 265.227 56.0785 264.453 56.1767 263.656C57.1643 254.378 56.2992 248.095 51.79 239.859C48.6436 233.376 49.2696 226.4 51.5127 219.75C51.8143 218.961 52.116 218.172 52.4267 217.359C53.1178 214.978 53.1178 214.978 51.9697 212.789C50.1383 208.068 50.8467 203.124 51.0537 198.125C51.1471 194.067 51.0942 190.931 49.3408 187.223C47.7726 183.745 47.6712 182.434 48.5752 178.812C48.7647 177.994 48.9542 177.175 49.1494 176.332C49.8797 174.025 50.6005 172.051 51.8877 170C52.8777 169.67 53.8677 169.34 54.8877 169C55.2177 168.34 55.5477 167.68 55.8877 167C56.8777 166.67 57.8677 166.34 58.8877 166C59.5477 165.01 60.2077 164.02 60.8877 163C65.1332 160.785 69.1514 159.698 73.8252 158.688C80.713 157.05 85.2727 153.932 89.9502 148.688C92.7085 146.285 95.3239 146.336 98.8877 146C99.2177 145.67 99.5477 145.34 99.8877 145C102.032 145.27 102.032 145.27 104.7 145.812C105.573 145.984 106.446 146.155 107.345 146.332C109.755 146.965 111.714 147.799 113.888 149C114.434 148.515 114.981 148.031 115.544 147.531C119.009 145.268 122.185 145.54 126.231 145.406C129.286 144.939 130.493 143.869 132.888 142C136.744 141.755 139.793 141.713 143.513 142.688C147.959 143.273 151.319 140.379 154.888 138C154.888 137.34 154.888 136.68 154.888 136C155.922 136.126 155.922 136.126 156.978 136.254C165.03 137.127 171.862 137.259 179.45 134.25C183.788 132.663 185.971 133.406 190.06 135.289C192.889 136.389 194.988 135.71 197.888 135C203.751 134.111 209.482 133.926 215.407 134.062C219.492 133.96 223.253 132.866 226.888 131C227.563 128.97 227.563 128.97 227.888 127C235.123 126.456 240.613 127.217 246.888 131C249.138 133.062 249.138 133.062 250.888 135C251.692 135.474 252.496 135.949 253.325 136.438C259.282 140.07 263.224 145.423 266.138 151.688C266.848 154.825 266.793 156.841 266.575 160C266.435 165.778 268.423 169.409 271.174 174.387C276.702 184.826 277.033 196.982 277.645 208.566C277.991 213.472 278.878 218.194 279.888 223C280.222 224.687 280.555 226.375 280.888 228.062C281.22 229.708 281.554 231.354 281.888 233C282.389 235.501 282.888 238.002 283.384 240.504C283.718 242.16 284.064 243.814 284.423 245.465C286.564 255.504 287.171 264.794 285.888 275C289.117 274.706 291.363 274.357 294.067 272.516C296.767 268.784 296.399 265.487 296.263 261C296.261 260.193 296.26 259.386 296.259 258.555C296.197 254.37 295.843 251.738 293.888 248C293.841 245.773 293.841 245.773 294.138 243.375C294.243 242.502 294.349 241.63 294.458 240.73C295.01 237.223 295.75 233.775 296.583 230.324C297.083 226.507 296.43 223.824 294.325 220.625C292.469 217.236 292.823 214.838 292.888 211C292.558 209.845 292.228 208.69 291.888 207.5C290.4 202.217 290.789 196.823 290.915 191.391C291.025 188.23 291.025 188.23 290.417 186.153C289.761 183.486 289.581 180.907 289.388 178.168C289.305 177.039 289.223 175.911 289.138 174.748C289.055 173.573 288.973 172.398 288.888 171.188C288.328 162.623 288.328 162.623 287.263 154.113C286.833 150.546 287.377 147.546 287.888 144C287.589 140.489 287.589 140.489 286.95 137C286.342 133.389 285.887 130.073 285.907 126.406C285.888 123.121 285.443 120.632 284.513 117.5C284.241 116.565 283.969 115.631 283.688 114.668C283.424 113.788 283.16 112.907 282.888 112C282.49 110.605 282.094 109.209 281.7 107.812C281.298 106.42 281.298 106.42 280.888 105C280.228 105 279.568 105 278.888 105C279.139 103.264 279.139 103.264 279.395 101.492C279.602 99.9532 279.808 98.4142 280.013 96.875C280.125 96.1145 280.237 95.3539 280.353 94.5703C280.955 89.9116 281.171 86.2922 278.888 82C276.665 80.7036 276.665 80.7036 273.95 80.125C265.764 77.5581 258.995 72.8873 253.888 66C250.114 63.7242 250.114 63.7242 245.888 63C245.623 62.4096 245.359 61.8192 245.087 61.2109C243.067 57.4862 239.956 54.8747 236.888 52C236.327 51.4689 235.766 50.9378 235.188 50.3906C232.048 47.5507 228.953 45.409 225.2 43.4375C221.453 41.4464 219.313 39.5511 216.888 36C213.34 30.831 210.849 29.2433 204.876 28.1289C202.813 27.8274 202.813 27.8274 200.888 29ZM167.556 30.5078C164.672 31.0398 162.127 30.9922 159.2 30.875C154.043 30.8117 150.03 31.6808 145.185 33.3398C142.335 34.1588 139.897 34.1055 136.962 33.9805C132.106 34.0262 126.966 35.0324 122.563 37.082C119.068 38.2811 115.89 37.9996 112.263 37.8125C102.987 37.5634 94.8167 39.7071 85.9951 42.3716C83.1023 43.2342 80.1837 43.9895 77.2627 44.75C74.2964 45.3839 74.2964 45.3839 71.8877 47C71.8877 49.1576 71.8917 51.3153 71.9189 53.4727C71.8897 55.8402 71.6888 58.0911 71.3877 60.4375C69.991 72.1376 70.2395 85.5957 77.0244 95.6914C80.0205 97.7956 82.6917 97.1486 86.2627 96.875C87.5698 96.7899 88.8769 96.7048 90.2236 96.6172C93.8794 96.0014 95.8736 95.0729 98.8877 93C102.784 91.8095 106.564 91.9772 110.595 92.0312C113.766 91.988 116.764 91.5318 119.888 91C119.888 90.34 119.888 89.68 119.888 89C120.878 89 121.868 89 122.888 89C123.218 89.66 123.548 90.32 123.888 91C124.878 90.67 125.868 90.34 126.888 90C127.847 90.2784 127.847 90.2784 128.825 90.5625C131.564 91.1434 132.567 90.4971 134.888 89C135.303 88.4702 135.718 87.9404 136.145 87.3945C137.888 86 137.888 86 140.595 85.9961C141.62 86.1418 142.644 86.2874 143.7 86.4375C148.42 86.972 151.443 86.8428 155.888 85C157.554 84.9621 159.222 84.9537 160.888 85C161.548 84.67 162.208 84.34 162.888 84C162.888 83.34 162.888 82.68 162.888 82C163.71 82.0348 164.533 82.0696 165.38 82.1055C175.992 82.4077 175.992 82.4077 185.888 79C186.716 76.9633 186.716 76.9633 186.888 75C185.898 75 184.908 75 183.888 75C183.903 74.4465 183.919 73.893 183.935 73.3228C184.481 57.7205 184.481 57.7205 179.888 43C179.228 43 178.568 43 177.888 43C177.393 39.04 177.393 39.04 176.888 35C175.898 35 174.908 35 173.888 35C173.393 32.525 173.393 32.525 172.888 30C169.978 29.8936 169.978 29.8936 167.556 30.5078ZM214.962 155.566C211.265 156.088 207.76 156.031 204.044 155.777C201.253 156.066 200.061 157.28 197.888 159C193.118 160.77 187.635 160.332 182.614 160.523C178.729 161.02 176.295 162.139 172.888 164C167.335 165.035 162.04 165.041 156.403 164.84C153.68 165.013 152.25 165.699 149.888 167C146.779 168.007 144.019 168.078 140.763 168C137.184 167.847 137.184 167.847 133.888 169C131.639 169.13 129.389 169.229 127.138 169.312C121.39 169.675 118.525 170.522 113.888 174C108.428 175.827 103.165 176.051 97.4502 175.875C90.0842 175.744 84.0992 177.622 77.7158 181.227C75.1517 183.714 74.6363 186.143 73.7002 189.562C71.913 195.949 71.913 195.949 70.8877 198C71.2177 198.99 71.5477 199.98 71.8877 201C71.9342 202.351 71.9264 203.704 71.8799 205.055C71.8631 205.835 71.8464 206.614 71.8291 207.418C71.785 209.048 71.733 210.679 71.6728 212.309C71.5829 217.272 72.1133 219.776 74.8877 224C76.3086 230.535 75.9213 237.147 75.7607 243.793C75.702 248.375 75.8055 251.812 77.8877 256C78.6879 260.081 78.906 263.923 78.8252 268.062C78.7882 272.969 79.7009 276.584 81.876 281.012C84.6107 286.71 85.6242 291.689 85.8877 298C87.8464 297.859 89.8046 297.712 91.7627 297.562C92.8532 297.481 93.9438 297.4 95.0674 297.316C97.835 297.17 97.835 297.17 99.8877 296C101.461 295.996 103.036 296.058 104.606 296.156C105.538 296.209 106.47 296.262 107.431 296.316C109.402 296.439 111.373 296.561 113.345 296.684C114.277 296.736 115.209 296.789 116.169 296.844C117.026 296.897 117.882 296.951 118.765 297.006C120.944 297.157 120.944 297.157 122.888 296C122.888 295.34 122.888 294.68 122.888 294C124.68 294.141 126.471 294.288 128.263 294.438C129.759 294.559 129.759 294.559 131.286 294.684C133.888 295 133.888 295 135.888 296C141.432 296.389 145.524 295.717 150.712 293.754C155.357 292.144 159.938 291.797 164.825 291.5C169.252 291.23 173.517 290.743 177.888 290C179.888 290 181.888 290 183.888 290C184.878 289.67 185.868 289.34 186.888 289C191.66 288.574 196.38 288.895 201.114 289.555C201.859 289.657 202.604 289.759 203.372 289.864C204.858 290.076 206.341 290.305 207.822 290.552C212.902 291.282 215.485 290.481 219.888 288C222.606 287.488 222.606 287.488 225.388 287.312C226.418 287.247 227.448 287.181 228.509 287.113C233.326 286.952 238.135 286.977 242.954 287.062C245.951 287.143 245.951 287.143 248.888 286C250.805 286.031 252.722 286.098 254.638 286.188C260.342 286.264 263.309 285.33 267.888 282C267.228 280.02 266.568 278.04 265.888 276C265.228 276 264.568 276 263.888 276C263.558 274.35 263.228 272.7 262.888 271C262.228 271 261.568 271 260.888 271C259.971 261.533 259.96 252.427 260.513 242.938C260.964 234.349 260.796 226.098 259.7 217.562C259.53 216.189 259.53 216.189 259.357 214.787C258.546 209.221 257.047 204.361 254.797 199.207C253.948 197.147 253.367 195.171 252.888 193C252.228 193 251.568 193 250.888 193C250.839 192.374 250.79 191.747 250.739 191.102C250.627 189.876 250.627 189.876 250.513 188.625C250.408 187.407 250.408 187.407 250.302 186.164C250.059 183.797 250.059 183.797 247.888 182C247.614 179.715 247.614 179.715 247.513 176.938C247.162 171.993 246.032 168.289 243.825 163.875C242.888 162 242.888 162 241.888 159C239.685 155.761 236.695 155.148 232.981 154.348C226.758 153.314 221.081 154.453 214.962 155.566Z" fill="black"/>
</svg>
