<svg width="733" height="187" viewBox="0 0 733 187" fill="none" xmlns="http://www.w3.org/2000/svg">
<path d="M720.436 0.035503C726.482 2.89447 729.61 7.68632 732.176 13.6686C733.568 19.3381 732.145 23.3656 730.081 28.6381C729.206 31.6452 729.126 34.3593 729.027 37.4727C728.678 40.9053 727.266 43.937 725.919 47.0744C723.523 53.0871 722.434 58.2019 722.377 64.7297C722.291 69.0247 721.857 73.2368 721.383 77.5037C721.304 78.2417 721.226 78.9797 721.145 79.74C720.69 83.8599 720.051 87.902 719.306 91.9816C716.516 108.415 717.907 123.564 720.871 139.812C721.028 140.677 721.186 141.541 721.348 142.432C721.81 144.934 722.285 147.432 722.77 149.929C722.913 150.67 723.056 151.412 723.203 152.175C723.937 155.812 724.815 159.326 725.955 162.859C727.758 168.461 728.298 173.809 727.483 179.65C725.705 182.456 724.395 182.841 721.229 184.33C720.623 184.635 720.017 184.94 719.393 185.254C716.335 186.636 714.594 187.128 711.375 186.066C710.655 185.615 709.935 185.165 709.193 184.7C708.222 184.319 707.25 183.937 706.25 183.545C705.886 184.186 705.521 184.828 705.146 185.489C699.108 176.654 698.765 167.336 698.405 156.937C698.134 149.612 697.343 142.43 696.354 135.171C695.937 131.934 695.937 131.934 696.041 129.937C695.382 129.902 694.723 129.868 694.044 129.832C693.763 130.557 693.483 131.282 693.194 132.029C690.298 137.563 684.649 141.481 678.812 143.429C677.977 143.591 677.142 143.754 676.282 143.922C675.918 144.564 675.554 145.206 675.179 145.867C670.478 147.195 665.898 147.746 661.041 148.13C660.389 148.266 659.736 148.402 659.064 148.543C652.053 149.818 643.679 148.48 637.126 145.875C634.088 143.276 632.671 140.433 631.606 136.574C630.847 136.079 630.088 135.585 629.306 135.076C626.343 133.02 625.276 131.537 624.035 128.166C624.495 125.374 624.495 125.374 625.296 123.225C624.654 122.861 624.012 122.497 623.351 122.122C624.01 122.156 624.669 122.191 625.348 122.226C625.222 121.476 625.096 120.726 624.966 119.953C624.611 117.181 624.611 117.181 624.82 113.186C624.178 112.822 623.537 112.458 622.875 112.083C623.417 111.422 623.417 111.422 623.97 110.748C627.546 106.338 627.546 106.338 630.442 101.465C631.101 101.499 631.76 101.534 632.439 101.569C632.508 100.251 632.577 98.9329 632.648 97.5747C633.637 97.6265 634.625 97.6784 635.644 97.7317C635.879 97.1864 636.114 96.6411 636.356 96.0793C638.477 92.9033 640.931 91.2929 644.104 89.1628C644.763 89.1973 645.422 89.2318 646.101 89.2674C646.136 88.6083 646.17 87.9492 646.206 87.2702C652.192 83.7036 656.917 82.2563 663.906 82.4281C666.55 82.4522 666.55 82.4522 669.112 81.3867C672.737 80.221 674.607 81.2019 677.999 82.6582C682.548 85.284 686.248 88.9165 689.989 92.5688C690.479 90.1337 690.96 87.6974 691.436 85.2596C691.576 84.5673 691.716 83.875 691.861 83.1617C692.735 79.3443 692.735 79.3443 691.877 75.6445C692.536 75.679 693.195 75.7136 693.874 75.7491C693.737 74.8939 693.6 74.0386 693.459 73.1574C692.907 66.0728 694.893 58.7364 697.243 52.0805C698.378 48.6568 698.482 45.83 698.567 42.2574C698.76 39.8856 699.297 37.9589 700.041 35.7045C701.97 29.3987 701.413 22.798 700.45 16.34C700.115 13.9911 700.115 13.9911 700.272 10.9952C700.199 10.0207 700.126 9.04619 700.051 8.04214C700.586 5.00346 700.586 5.00346 703.401 2.64754C704.518 2.21043 705.636 1.77331 706.787 1.32296C708.417 2.07594 710.046 2.82891 711.676 3.58189C718.07 -0.0884784 718.07 -0.0884783 720.436 0.035503ZM655.83 113.81C654.503 116.149 654.524 117.697 654.422 120.371C654.389 121.187 654.355 122.004 654.32 122.845C654.299 123.471 654.278 124.098 654.256 124.743C659.118 124.557 662.869 122.445 666.553 119.379C666.588 118.72 666.623 118.061 666.658 117.382C667.317 117.416 667.976 117.451 668.655 117.486C668.69 116.827 668.724 116.168 668.76 115.489C669.419 115.524 670.078 115.558 670.757 115.594C670.792 114.935 670.826 114.276 670.862 113.597C671.506 113.527 672.15 113.458 672.813 113.386C673.851 113.1 673.851 113.1 674.909 112.807C675.29 111.836 675.672 110.865 676.064 109.864C675.405 109.829 674.746 109.795 674.067 109.759C674.102 109.1 674.136 108.441 674.172 107.762C665.182 104.233 661.456 106.535 655.83 113.81Z" fill="#11110B"/>
<path d="M224.453 66.7317C227.04 66.8766 228.251 67 230.174 68.7761C231.303 70.3515 232.333 71.9964 233.353 73.6445C234.316 74.1906 234.316 74.1906 235.298 74.7478C235.715 77.539 235.715 77.539 235.97 81.0415C236.287 85.3362 236.887 88.8922 238.351 92.9324C238.726 95.0175 238.726 95.0175 238.89 96.9662C238.955 97.6098 239.019 98.2535 239.085 98.9166C238.931 100.974 238.931 100.974 237.827 103.232C236.369 106.552 236.372 109.235 236.305 112.853C236.042 120.033 234.913 126.728 233.209 133.719C233.962 134.038 234.714 134.356 235.49 134.684C239.272 136.561 242.025 139.391 243.723 143.283C243.658 145.282 243.557 147.28 243.409 149.274C232.864 154.923 232.864 154.923 228.656 154.24C226.614 153.276 226.614 153.276 223.279 151.224C222.291 151.172 221.302 151.12 220.283 151.067C214.885 147.944 212.503 144.451 210.925 138.56C210.543 135.207 210.49 131.892 210.45 128.521C210.212 126.838 209.967 125.156 209.713 123.476C209.322 118.406 209.233 113.523 209.499 108.444C206.371 111.26 205.47 114.865 203.953 118.734C202.827 121.112 202.827 121.112 200.778 122.006C200.512 122.735 200.247 123.465 199.973 124.217C197.314 129.111 192.428 131.263 187.305 133.066C180.616 134.959 173.836 135.279 167.142 133.261C162.392 130.099 162.392 130.099 160.414 127.901C160.157 129.251 160.157 129.251 159.895 130.628C159.462 132.874 158.987 135.093 158.442 137.315C157.317 141.98 156.392 146.517 156.042 151.306C155.98 152.103 155.917 152.9 155.853 153.72C155.74 155.299 155.651 156.879 155.589 158.46C155.267 162.834 154.933 164.208 151.64 167.379C148.577 169.123 145.848 170.439 142.484 171.46C141.547 171.761 140.61 172.062 139.644 172.371C136.613 172.799 135.565 172.318 133.145 170.533C133.197 169.544 133.249 168.555 133.302 167.537C131.984 167.468 130.666 167.399 129.308 167.328C128.762 168.29 128.762 168.29 128.204 169.272C122.599 162.476 123.773 153.861 124.171 145.615C124.618 142.098 125.589 139.416 126.936 136.161C126.795 133.372 126.795 133.372 126.199 131.115C126.846 130.984 127.493 130.853 128.16 130.717C128.865 130.259 129.571 129.8 130.298 129.327C130.63 127.353 130.955 125.376 131.204 123.39C132.033 120.15 134.448 118.706 136.97 116.659C138.301 114.445 138.301 114.445 139.229 111.771C139.499 111.101 139.769 110.431 140.047 109.74C141.445 106.264 142.729 102.83 143.828 99.2442C145.059 96.0542 145.059 96.0542 147.181 93.7872C149.403 91.1678 149.766 89.9521 150.494 86.7008C151.498 82.6233 151.498 82.6233 154.139 80.4455C157.293 79.5515 159.67 79.7299 162.926 79.9672C163.956 79.6288 164.985 79.2903 166.046 78.9416C169.022 78.284 169.022 78.284 171.532 79.3543C178.781 86.1697 180.402 94.7249 182.693 104.035C183.337 103.573 183.981 103.111 184.644 102.635C186.845 101.248 186.845 101.248 188.842 101.353C188.839 100.632 188.835 99.912 188.831 99.1697C189.131 96.0789 189.977 94.1066 191.369 91.3464C192.818 88.4578 193.608 86.8456 193.779 83.5869C195.818 80.5019 195.818 80.5019 198.087 77.8045C198.746 77.839 199.405 77.8736 200.084 77.9092C200.466 76.9378 200.847 75.9664 201.24 74.9656C201.899 75.0001 202.558 75.0347 203.237 75.0703C203.664 74.171 203.664 74.171 204.099 73.2535C206.347 69.7881 209.784 68.7485 213.642 67.6046C217.085 67.5973 217.085 67.5973 219.634 67.9186C220.685 66.9723 220.685 66.9723 224.453 66.7317Z" fill="#11110B"/>
<path d="M113.256 72.3573C118.229 77.1002 122.243 82.001 123.404 88.9111C119.763 94.5719 114.247 97.295 107.849 99.111C104.238 98.734 104.238 98.734 101.909 97.7983C101.944 97.1393 101.978 96.4802 102.014 95.8011C99.3865 96.767 99.3865 96.767 96.8636 98.5353C93.5364 109.478 97.8876 124.157 100.971 134.8C101.63 134.835 102.289 134.869 102.969 134.905C106.029 141.936 105.053 150.567 103.762 157.978C101.61 163.425 97.9474 166.245 93.1477 169.438C92.4661 170.228 91.7844 171.019 91.082 171.833C88.5508 174.593 86.0037 176.184 82.6904 177.902C82.0313 177.868 81.3722 177.833 80.6932 177.798C80.6586 178.457 80.6241 179.116 80.5885 179.795C79.5998 179.743 78.6112 179.691 77.5926 179.638C77.2285 180.28 76.8644 180.922 76.4893 181.583C75.1711 181.514 73.8529 181.445 72.4948 181.373C72.4602 182.033 72.4257 182.692 72.3901 183.371C59.2178 185.989 48.8194 187.834 36.4394 181.487C35.8361 180.979 35.2328 180.471 34.6112 179.947C29.4246 175.647 23.2053 172.822 16.6193 171.561C12.022 170.527 9.9031 168.763 7.30047 164.869C5.93271 161.951 5.97642 159.032 5.73935 155.845C4.53791 154.342 3.33551 152.839 2.11405 151.352C-1.76543 144.87 0.788318 133.737 1.26531 126.571C3.69267 125.634 3.69267 125.634 6.36313 124.835C7.00496 125.199 7.64678 125.563 8.30806 125.938C9.19903 125.489 9.19903 125.489 10.108 125.031C13.4794 123.74 15.0277 124.042 18.3467 125.463C23.0453 130.711 23.7356 137.297 24.5111 144.053C24.9408 146.943 24.9408 146.943 27.1067 148.191C27.7732 148.477 28.4398 148.764 29.1265 149.059C31.5886 151.653 33.8644 154.322 36.0891 157.122C39.0689 160.038 41.4469 160.966 45.4752 161.933C46.4811 161.655 47.487 161.377 48.5234 161.091C51.7735 161.036 55.0139 161.037 58.2637 161.083C60.0289 161.084 61.7935 160.988 63.5552 160.878C63.9193 160.236 64.2834 159.594 64.6585 158.933C65.6471 158.984 66.6358 159.036 67.6544 159.09C68.2264 157.633 68.2264 157.633 68.81 156.146C69.4691 156.181 70.1282 156.215 70.8073 156.251C70.5461 151.776 70.5461 151.776 70.2797 147.211C71.2856 146.933 72.2915 146.655 73.3279 146.369C74.8016 143.18 75.8799 139.914 76.8471 136.54C76.1881 136.505 75.529 136.471 74.8499 136.435C75.2933 134.921 75.2933 134.921 75.7456 133.376C76.3243 128.592 75.3139 126.975 72.8037 122.935C69.7102 117.734 67.5336 112.905 66.3813 106.952C66.2335 106.202 66.0856 105.452 65.9333 104.679C65.8207 104.093 65.7081 103.508 65.592 102.905C66.2511 102.939 66.9102 102.974 67.5893 103.009C67.491 102.398 67.3927 101.786 67.2914 101.155C66.4729 93.7976 68.0787 89.0753 72.6305 83.2461C74.6328 81.3682 76.5472 80.0509 78.884 78.567C79.5776 77.9424 80.2713 77.3179 80.9859 76.6744C86.5035 72.6337 90.422 70.5412 97.2973 71.4506C99.422 71.7845 99.422 71.7845 101.831 70.632C106.09 69.3873 109.396 70.2567 113.256 72.3573Z" fill="#11110A"/>
<path d="M556.957 70.5764C560.971 73.1272 564.231 76.449 567.353 80.0084C568.017 80.7454 568.68 81.4824 569.364 82.2417C572.098 82.385 572.824 81.2796 574.948 79.5928C579.42 76.4594 583.012 76.2101 588.379 76.3342C590.719 76.5077 590.719 76.5077 592.751 75.4564C597.885 75.3384 600.574 75.8927 604.578 79.0803C615.178 92.2494 615.787 106.791 616.849 123.037C616.993 125.224 617.149 127.41 617.334 129.595C617.708 134.247 617.738 138.323 616.26 142.779C612.816 146.363 608.985 147.37 604.194 148.049C600.853 148.033 598.755 146.684 596.13 144.728C595.766 145.37 595.402 146.012 595.027 146.673C592.569 141.919 592.245 138.82 592.711 133.534C592.525 131.515 592.31 129.497 592.027 127.49C592.686 127.524 593.345 127.559 594.024 127.594C593.403 121.189 592.463 116.657 588.87 111.302C588.904 110.643 588.939 109.984 588.974 109.305C588.325 109.67 587.676 110.035 587.008 110.411C572.231 118.52 572.231 118.52 562.591 115.933C561.936 115.831 561.28 115.728 560.605 115.622C553.91 114.28 550.921 109.496 547.189 104.111C547.036 104.927 546.884 105.742 546.727 106.583C545.354 113.591 543.634 120.18 540.992 126.818C540.333 126.783 539.674 126.749 538.995 126.713C538.81 127.488 538.624 128.263 538.434 129.062C537.734 131.654 537.734 131.654 536.631 133.599C536.647 136.669 536.829 139.717 536.995 142.783C537.002 145.635 537.002 145.635 535.846 148.578C530.646 152.166 524.933 155.26 518.503 154.679C516.058 153.418 513.976 151.92 511.722 150.318C510.733 150.266 509.745 150.215 508.726 150.161C507.371 146.442 506.924 143.745 507.699 139.906C508.735 136.231 508.735 136.231 507.619 133.08C508.722 129.946 508.722 129.946 509.93 127.193C510.589 127.227 511.248 127.262 511.927 127.297C511.699 125.737 511.699 125.737 511.466 124.144C511.286 120.049 511.941 118.042 513.606 114.368C513.771 113.591 513.935 112.815 514.105 112.015C515.498 107.279 517.717 102.97 521.506 99.761C523.431 98.8605 523.431 98.8605 525.428 98.9652C525.459 97.9961 525.489 97.027 525.52 96.0285C525.742 92.9734 525.742 92.9734 526.793 92.0271C526.631 91.1925 526.468 90.3578 526.3 89.4979C526.042 84.7608 527.259 81.2659 529.576 77.1524C532.072 74.9049 532.072 74.9049 534.778 73.4195C535.57 72.8828 536.363 72.346 537.179 71.793C540.996 70.2552 543.829 70.7551 547.917 71.104C551.212 69.667 553.413 69.9871 556.957 70.5764Z" fill="#11110B"/>
<path d="M277.891 84.7641C280.359 85.184 282.405 84.7744 284.863 84.355C290.748 84.086 294.042 84.845 298.718 88.4647C303.72 93.0881 307.668 98.732 310.832 104.742C310.797 105.401 310.763 106.06 310.727 106.739C311.292 106.996 311.857 107.253 312.439 107.517C315.195 109.325 316.614 111.369 318.35 114.148C318.315 114.808 318.281 115.467 318.245 116.146C318.904 116.18 319.563 116.215 320.243 116.25C326.643 139.559 326.643 139.559 323.456 150.465C323.247 151.299 323.038 152.132 322.823 152.99C320.956 159.353 318.364 162.622 312.633 165.92C307.059 168.925 300.73 170.654 294.412 169.659C292.451 168.868 292.451 168.868 291.504 167.817C289.535 167.606 287.562 167.425 285.588 167.257C275.923 166.047 270.113 162.423 264.06 154.988C261.773 152.839 259.582 152.009 256.654 150.907C253.024 149.51 251.625 148.899 249.032 145.877C247.741 142.416 247.171 139.288 246.693 135.646C246.235 133.361 245.534 131.859 244.364 129.86C241.934 125.36 242.114 121.194 242.14 116.163C242.122 114.572 242.102 112.982 242.081 111.391C242.065 109.663 242.05 107.934 242.036 106.206C242.028 105.363 242.019 104.52 242.011 103.651C242.01 102.853 242.008 102.055 242.007 101.233C242.004 100.515 242.001 99.7973 241.998 99.0578C242.136 97.1364 242.136 97.1364 243.291 94.1928C243.951 94.2273 244.61 94.2619 245.289 94.2975C245.588 93.7142 245.887 93.1309 246.195 92.53C248.536 88.7091 250.846 87.2598 255.165 86.1782C255.938 85.9786 256.711 85.7791 257.508 85.5735C263.579 84.1663 263.579 84.1663 265.808 84.921C267.801 85.705 267.801 85.705 269.582 84.5555C272.593 83.402 274.809 84.109 277.891 84.7641ZM275.671 106.905C273.8 115.608 271.932 127.952 276.009 136.275C279.909 141.777 283.222 143.723 289.66 145.69C292.928 146.283 292.928 146.283 295.652 146.004C298.385 143.543 298.239 142.264 298.541 138.645C298.799 132.614 297.225 129.138 294.117 124.081C292.565 121.176 292.905 119.053 293.227 115.836C290.436 111.636 286.373 108.993 281.467 107.803C279.543 107.455 277.607 107.174 275.671 106.905Z" fill="#11110B"/>
<path d="M360.847 10.2301C365.021 13.623 368.483 18.4666 369.841 23.7193C370.635 31.4257 367.765 40.2807 365.346 47.5232C364.645 49.7426 364.645 49.7426 364.667 53.1764C364.527 57.1113 363.595 60.5206 362.47 64.2758C361.527 67.7946 361.017 71.0254 362.491 74.404C362.567 76.8944 362.605 79.3672 362.601 81.8575C362.576 87.2204 362.576 87.2204 363.546 92.484C363.473 96.692 363.121 100.674 362.399 104.816C360.386 117.676 360.01 129.034 363.977 141.574C364.243 142.806 364.509 144.039 364.783 145.309C366.302 151.493 368.404 157.458 370.976 163.282C371.266 163.947 371.557 164.611 371.856 165.296C372.499 166.718 373.194 168.117 373.904 169.507C374.738 174.053 374.111 177.986 371.87 182.042C368.685 184.381 365.501 185.766 361.622 186.512C358.822 185.978 358.822 185.978 356.681 185.252C356.716 184.593 356.75 183.934 356.786 183.255C355.797 183.203 354.809 183.151 353.79 183.098C353.426 183.739 353.062 184.381 352.687 185.043C345.776 179.893 342.365 172.433 341.058 163.979C340.864 161.738 340.697 159.494 340.558 157.249C340.403 154.177 340.403 154.177 338.83 150.896C336.579 143.874 337.629 135.823 339.219 128.69C339.844 125.004 339.534 122.486 338.757 118.848C337.89 114.42 337.228 110.203 337.072 105.699C336.973 103.536 336.805 101.377 336.621 99.2209C336.561 98.5166 336.501 97.8123 336.44 97.0866C336.32 95.688 336.193 94.2898 336.059 92.8925C335.686 88.3576 336.223 84.5158 337.158 80.0861C336.863 79.4097 336.568 78.7333 336.264 78.0365C336.924 78.071 337.583 78.1055 338.262 78.1411C338.207 77.5806 338.153 77.0201 338.096 76.4427C337.724 71.8082 337.878 67.9111 338.843 63.327C339.834 56.3859 339.008 48.7645 337.15 42.0335C337.373 40.9299 337.596 39.8263 337.826 38.6892C338.679 34.2395 338.124 31.3042 336.936 27.0017C337.595 27.0362 338.255 27.0708 338.934 27.1063C338.837 26.2126 338.837 26.2126 338.739 25.3007C338.002 16.8559 338.002 16.8559 340.665 13.1779C343.138 11.3673 343.138 11.3673 345.815 10.4437C347.112 11.1792 348.408 11.9147 349.705 12.6503C356.008 9.42933 356.008 9.42933 360.847 10.2301ZM338.672 32.0995C339.566 34.1491 339.566 34.1491 339.566 34.1491L338.672 32.0995Z" fill="#11110B"/>
<path d="M408.741 140.102C409.382 140.371 410.024 140.641 410.685 140.918C413.263 142.016 415.743 143.168 418.151 144.605C422.875 147.106 429.95 144.314 434.985 143.293C468.595 136.591 468.595 136.591 478.435 142.921C481.41 146.514 482.465 150.1 482.448 154.792C475.694 160.977 467.928 161.947 459.197 163.148C457.731 163.359 456.268 163.6 454.812 163.874C446.107 165.42 437.332 165.106 428.525 165.047C426.073 165.034 423.621 165.024 421.168 165.019C419.653 165.015 418.138 165.007 416.622 164.994C412.918 164.981 409.424 165.251 405.767 165.794C398.187 164.521 390.978 163.096 386.213 156.758C384.288 152.24 384.569 149.389 385.842 144.723C385.911 143.404 385.981 142.086 386.052 140.728C387.792 139.755 387.792 139.755 390.151 138.94C390.924 139.167 391.697 139.393 392.493 139.626C395.21 140.521 395.21 140.521 397.86 138.734C402.236 137.161 404.716 138.27 408.741 140.102Z" fill="#11110A"/>
<path d="M665.442 83.2714C662.96 85.0361 661.217 86.0781 658.242 86.8996C657.6 86.5355 656.958 86.1714 656.297 85.7963C656.262 86.4554 656.228 87.1145 656.192 87.7935C655.634 88.0328 655.075 88.272 654.5 88.5185C644.548 93.0449 636.94 99.0719 631.504 108.655C629.581 112.046 627.498 114.582 624.611 117.181C624.68 115.863 624.749 114.545 624.82 113.186C624.178 112.822 623.537 112.458 622.875 112.083C623.237 111.643 623.598 111.202 623.97 110.748C627.546 106.338 627.546 106.338 630.442 101.465C631.101 101.499 631.76 101.534 632.439 101.569C632.508 100.251 632.577 98.9329 632.648 97.5747C633.637 97.6265 634.625 97.6784 635.644 97.7317C635.879 97.1864 636.114 96.6411 636.356 96.0793C638.477 92.9033 640.931 91.2929 644.104 89.1628C644.763 89.1973 645.422 89.2318 646.101 89.2674C646.136 88.6083 646.17 87.9492 646.206 87.2702C652.859 83.2611 657.742 82.139 665.442 83.2714Z" fill="black"/>
<path d="M96.2794 71.4676C96.9039 72.1612 97.5285 72.8549 98.1719 73.5695C92.0232 76.2514 92.0232 76.2514 89.7863 77.1355C87.8769 77.9476 87.8769 77.9476 86.4756 79.4029C84.7711 80.8782 84.7711 80.8782 81.7032 82.0943C78.2489 83.7377 77.3137 85.2023 75.3647 88.3962C74.7056 88.3617 74.0465 88.3271 73.3675 88.2915C71.4436 91.283 71.1487 92.4142 70.9515 96.1759C70.2924 96.1414 69.6333 96.1068 68.9542 96.0712C68.9024 97.0599 68.8506 98.0485 68.7972 99.0671C68.1554 98.703 67.5136 98.3389 66.8523 97.9638C67.5445 91.451 69.314 87.222 73.6815 82.2998C76.4896 80.0687 76.4896 80.0687 78.884 78.567C79.5776 77.9424 80.2713 77.3179 80.9859 76.6744C90.5765 70.0414 90.5765 70.0414 96.2794 71.4676Z" fill="#010100"/>
<path d="M141.488 106.882C142.13 107.246 142.772 107.61 143.433 107.985C142.689 113.418 140.967 117.121 137.842 121.524C134.181 126.926 131.708 132.04 129.827 138.315C129.067 140.281 128.301 142.246 127.516 144.202C126.544 143.821 125.573 143.439 124.572 143.046C124.76 142.441 124.948 141.835 125.142 141.21C125.378 140.413 125.615 139.617 125.859 138.795C126.098 138.006 126.336 137.217 126.583 136.404C127.247 134.014 127.247 134.014 126.199 131.115C127.169 130.918 127.169 130.918 128.16 130.717C128.865 130.259 129.571 129.8 130.298 129.327C130.63 127.353 130.955 125.376 131.204 123.39C132.033 120.15 134.448 118.706 136.97 116.659C138.33 114.27 138.33 114.27 139.229 111.771C139.982 110.141 140.735 108.512 141.488 106.882Z" fill="#010100"/>
<path d="M674.277 105.765C674.572 106.441 674.867 107.117 675.17 107.814C675.83 107.849 676.489 107.883 677.168 107.919C677.973 110.465 677.973 110.465 677.852 113.963C674.148 119.333 668.096 124.461 662.14 127.159C659.394 127.171 659.394 127.171 657.147 126.897C657.199 125.908 657.251 124.92 657.304 123.901C659.085 122.676 659.085 122.676 661.37 121.548C664.575 120.073 664.575 120.073 666.658 117.382C667.317 117.416 667.976 117.451 668.655 117.486C668.69 116.827 668.724 116.168 668.76 115.489C669.419 115.524 670.078 115.558 670.757 115.594C670.792 114.935 670.826 114.276 670.862 113.597C671.516 113.342 672.169 113.087 672.843 112.824C675.104 111.988 675.104 111.988 676.064 109.864C675.405 109.829 674.746 109.795 674.067 109.759C674.136 108.441 674.205 107.123 674.277 105.765Z" fill="#010100"/>
<path d="M218.583 68.8649C215.761 71.4063 213.054 71.6399 209.386 72.3884C209.352 73.0475 209.317 73.7066 209.282 74.3857C207.213 75.9669 205.128 77.5263 203.028 79.0648C202.664 79.7067 202.3 80.3485 201.925 81.0097C201.266 80.9752 200.607 80.9407 199.927 80.9051C199.833 81.5197 199.739 82.1344 199.642 82.7677C198.72 84.8473 198.72 84.8473 196.095 85.9614C195.279 86.1665 194.463 86.3716 193.622 86.5828C193.833 82.555 195.534 80.8398 198.087 77.8045C198.746 77.839 199.405 77.8736 200.084 77.9092C200.466 76.9378 200.847 75.9664 201.24 74.9656C201.899 75.0001 202.558 75.0347 203.237 75.0703C203.52 74.472 203.804 73.8737 204.095 73.2572C207.186 68.4989 213.402 66.6059 218.583 68.8649Z" fill="#020200"/>
<path d="M266.783 85.4102C266.749 86.0693 266.714 86.7284 266.679 87.4075C265.448 87.6322 264.218 87.8568 262.95 88.0883C259.677 88.7196 256.634 89.6145 253.487 90.7216C252.828 90.6871 252.169 90.6525 251.49 90.617C251.455 91.2761 251.421 91.9352 251.385 92.6142C250.726 92.5797 250.067 92.5451 249.388 92.5095C248.989 93.8105 248.591 95.1114 248.18 96.4517C247.521 96.4172 246.862 96.3826 246.183 96.3471C245.184 98.8909 244.781 100.62 244.501 103.28C244.42 104.034 244.338 104.788 244.254 105.565C244.174 106.348 244.093 107.131 244.011 107.937C243.926 108.731 243.841 109.525 243.754 110.343C243.545 112.3 243.341 114.257 243.139 116.215C242.809 116.198 242.48 116.18 242.14 116.163C242.106 113.053 242.085 109.943 242.066 106.833C242.056 105.951 242.046 105.068 242.036 104.158C242.032 103.309 242.028 102.46 242.024 101.586C242.018 100.804 242.011 100.022 242.005 99.2171C242.136 97.1363 242.136 97.1364 243.291 94.1928C243.951 94.2273 244.61 94.2619 245.289 94.2975C245.588 93.7142 245.887 93.1309 246.195 92.53C248.555 88.6782 250.872 87.2572 255.227 86.1815C256.405 85.883 256.405 85.883 257.606 85.5786C258.327 85.4021 259.049 85.2257 259.793 85.0439C262.977 84.1648 263.826 84.3197 266.783 85.4102Z" fill="#010100"/>
<path d="M545.92 70.9993C546.215 71.6757 546.51 72.3521 546.814 73.0489C545.778 73.467 545.778 73.467 544.72 73.8936C543.807 74.2743 542.894 74.655 541.953 75.0472C541.05 75.4182 540.148 75.7891 539.218 76.1713C534.096 78.7734 531.898 81.6212 529.814 86.9282C529.428 87.8942 529.042 88.8602 528.644 89.8554C528.363 90.5893 528.082 91.3233 527.792 92.0795C525.718 87.8998 526.025 85.5595 527.369 81.0422C531.279 74.15 537.828 69.5542 545.92 70.9993Z" fill="#010100"/>
<path d="M74.4312 144.424C75.4025 144.805 76.3739 145.187 77.3747 145.58C77.6524 146.586 77.9302 147.592 78.2163 148.628C76.2657 151.217 76.2657 151.217 73.9601 153.412C73.301 153.377 72.6419 153.343 71.9629 153.307C72.2406 154.313 72.5183 155.319 72.8045 156.355C71.5117 160.044 70.898 161.035 67.445 163.084C64.8387 163.09 62.351 163.005 59.7615 162.807C59.061 162.761 58.3606 162.715 57.6389 162.668C55.9138 162.554 54.1896 162.428 52.4656 162.299C52.4828 161.969 52.5001 161.64 52.5179 161.3C53.3018 161.292 54.0858 161.284 54.8935 161.276C55.9079 161.255 56.9224 161.233 57.9676 161.21C58.9792 161.194 59.9908 161.177 61.033 161.16C61.8653 161.067 62.6977 160.974 63.5552 160.878C63.9193 160.236 64.2834 159.594 64.6585 158.933C65.6471 158.984 66.6358 159.036 67.6544 159.09C68.0357 158.118 68.4171 157.147 68.81 156.146C69.4691 156.181 70.1282 156.215 70.8073 156.251C70.6332 153.268 70.4591 150.284 70.2797 147.211C71.2856 146.933 72.2915 146.655 73.3279 146.369C73.692 145.727 74.056 145.085 74.4312 144.424Z" fill="#020200"/>
<path d="M161.875 80.9135C161.511 81.5553 161.147 82.1971 160.772 82.8584C159.454 82.7893 158.135 82.7202 156.777 82.6491C156.743 83.3082 156.708 83.9673 156.673 84.6463C156.028 85.1289 155.383 85.6114 154.718 86.1086C151.921 88.9972 151.489 91.3622 150.7 95.2272C149.87 97.702 148.813 98.4919 146.847 100.153C145.777 101.902 145.777 101.902 144.969 103.748C144.48 104.816 143.99 105.885 143.485 106.987C142.085 102.875 143.398 99.926 145.06 96.0542C145.76 95.306 146.46 94.558 147.181 93.7872C149.403 91.1678 149.766 89.9521 150.494 86.7008C151.3 83.4076 151.493 82.6281 154.205 80.3863C157.293 79.5567 158.908 79.8073 161.875 80.9135Z" fill="#020200"/>
<path d="M525.585 95.9693C526.244 96.0038 526.904 96.0384 527.583 96.074C526.86 99.4153 526.263 101.094 524.168 103.906C523.509 103.871 522.85 103.837 522.171 103.801C522.136 104.46 522.102 105.12 522.066 105.799C521.407 105.764 520.748 105.73 520.069 105.694C519.944 106.493 519.82 107.292 519.692 108.115C518.504 112.581 516.49 116.368 514.291 120.412C513.666 119.718 513.042 119.024 512.398 118.31C513.115 111.589 516.321 104.153 521.506 99.761C523.431 98.8605 523.431 98.8605 525.428 98.9652C525.48 97.9766 525.532 96.9879 525.585 95.9693Z" fill="#020200"/>
<path d="M589.65 77.2966C586.315 79.7331 584.657 80.3874 580.506 79.8215C580.471 80.4806 580.437 81.1397 580.401 81.8187C579.742 81.7842 579.083 81.7496 578.404 81.7141C578.369 82.3731 578.335 83.0322 578.299 83.7113C575.852 86.2117 575.852 86.2117 573.044 88.4428C572.056 88.391 571.067 88.3392 570.048 88.2858C569.878 85.1422 569.896 83.7574 572.031 81.3605C578.125 77.0207 582.268 75.9294 589.65 77.2966Z" fill="#010100"/>
<path d="M347.954 11.4319C348.821 12.035 348.821 12.035 349.705 12.6503C350.381 12.3553 351.058 12.0602 351.755 11.7563C350.967 13.6551 350.967 13.6551 349.548 15.6461C347.078 16.2051 347.078 16.2051 344.502 16.3831C343.497 16.6608 342.491 16.9385 341.454 17.2247C341.178 22.4975 340.902 27.7702 340.617 33.2028C339.611 33.4805 338.605 33.7582 337.569 34.0444C337.63 33.2628 337.692 32.4812 337.755 31.6759C338.016 29.0798 338.016 29.0799 336.936 27.0017C337.595 27.0362 338.255 27.0708 338.934 27.1063C338.869 26.5105 338.805 25.9146 338.739 25.3007C338.002 16.8559 338.002 16.8559 340.665 13.1779C344.947 10.0427 344.947 10.0427 347.954 11.4319Z" fill="#020200"/>
<path d="M192.571 87.5291C193.23 87.5636 193.889 87.5982 194.568 87.6338C194.563 94.7833 193.167 98.5473 188.629 104.221C187.954 104.888 187.279 105.554 186.583 106.241C185.924 106.207 185.265 106.172 184.586 106.137C184.222 106.779 183.858 107.42 183.483 108.082C182.459 108.689 181.436 109.296 180.382 109.922C180.538 106.956 180.693 103.99 180.853 100.934C181.764 102.469 181.764 102.469 182.693 104.035C183.337 103.573 183.981 103.111 184.644 102.635C186.845 101.248 186.845 101.248 188.842 101.353C188.814 100.711 188.785 100.069 188.756 99.4082C189.244 95.1305 190.89 91.4678 192.571 87.5291Z" fill="#010100"/>
<path d="M261.384 150.216C265.187 152.959 268.342 155.546 271.215 159.228C273.163 161.144 274.878 161.834 277.437 162.761C278.231 163.055 279.025 163.348 279.843 163.65C280.448 163.864 281.052 164.078 281.675 164.298C281.311 164.939 280.947 165.581 280.572 166.243C273.437 164.107 269.088 160.848 264.118 155.367C263.337 154.52 262.555 153.674 261.749 152.802C261.282 152.261 260.815 151.72 260.333 151.163C260.68 150.85 261.027 150.538 261.384 150.216Z" fill="#010100"/>
<path d="M706.787 1.32296C708.071 2.05113 709.354 2.77931 710.677 3.52956C710.625 4.5182 710.573 5.50685 710.52 6.52545C709.219 6.12682 707.918 5.72818 706.578 5.31747C706.179 6.61839 705.781 7.91931 705.37 9.25966C704.711 9.22511 704.052 9.19057 703.373 9.15498C703.008 9.79681 702.644 10.4386 702.269 11.0999C701.627 10.7358 700.986 10.3717 700.324 9.99661C700.068 7.73006 700.068 7.73006 700.586 5.00346C703.703 2.85114 703.703 2.85114 706.787 1.32296Z" fill="black"/>
<path d="M448.019 142.974C445.482 143.691 442.943 144.389 440.398 145.078C439.691 145.28 438.983 145.482 438.254 145.69C433.195 147.041 429.005 147.221 423.79 146.711C427.439 144.546 430.875 144 434.985 143.293C435.78 143.134 436.576 142.976 437.396 142.813C438.186 142.662 438.976 142.511 439.79 142.355C440.515 142.214 441.24 142.072 441.987 141.927C444.301 141.749 445.862 142.163 448.019 142.974Z" fill="black"/>
<path d="M548.188 104.163C553.708 105.823 553.708 105.823 555.563 109.119C555.974 109.946 556.385 110.773 556.809 111.625C558.783 112.463 558.783 112.463 560.751 112.833C561.376 113.526 562 114.22 562.644 114.935C559.943 115.106 559.943 115.106 556.652 114.621C553.305 111.521 550.776 107.909 548.188 104.163Z" fill="#020200"/>
<path d="M340.224 155.35C340.883 155.384 341.542 155.419 342.221 155.454C343.183 160.83 343.972 166.143 344.379 171.589C345.039 171.624 345.698 171.658 346.377 171.694C346.637 173.029 346.898 174.365 347.166 175.741C344.222 174.585 344.222 174.585 343.194 172.56C341.238 166.681 340.298 161.55 340.224 155.35Z" fill="#010100"/>
<path d="M247.979 138.499C250.088 141.301 251.613 143.342 252.554 146.75C255.494 147.399 255.494 147.399 258.493 148.062C258.112 149.034 257.73 150.005 257.337 151.006C253.375 149.884 251.72 149.059 249.229 145.699C247.77 142.493 247.77 142.493 247.979 138.499Z" fill="black"/>
<path d="M700.097 167.2C700.426 167.217 700.756 167.235 701.095 167.252C701.564 170.912 702.033 174.572 702.517 178.342C703.176 178.377 703.835 178.411 704.514 178.447C704.462 179.435 704.41 180.424 704.357 181.443C706.005 181.529 707.653 181.615 709.35 181.704C708.986 182.346 708.622 182.988 708.247 183.649C707.588 183.615 706.929 183.58 706.25 183.545C705.886 184.186 705.521 184.828 705.146 185.489C701.68 180.417 699.84 175.255 698.993 169.145C699.357 168.503 699.722 167.861 700.097 167.2Z" fill="black"/>
<path d="M389.152 138.888C391.856 139.843 391.856 139.843 394.041 141.147C392.589 142.573 392.589 142.573 390.888 143.986C390.229 143.951 389.57 143.916 388.891 143.881C388.509 144.852 388.128 145.824 387.735 146.824C387.093 146.46 386.451 146.096 385.79 145.721C385.274 143.629 385.274 143.629 385.001 141.674C386.771 140.14 386.771 140.14 389.152 138.888Z" fill="black"/>
<path d="M633.446 139.674C634.412 140.159 635.378 140.643 636.373 141.142C640.232 143.044 644.158 144.755 648.111 146.451C644.076 147.385 641.141 147.032 637.126 145.875C634.794 143.813 634.794 143.813 633.341 141.671C633.376 141.012 633.41 140.353 633.446 139.674Z" fill="#010100"/>
<path d="M4.36584 124.73C5.64949 125.458 6.93313 126.187 8.25568 126.937C6.85439 128.199 5.45311 129.46 4.05182 130.722C3.67046 131.693 3.2891 132.665 2.89618 133.666C2.23709 133.631 1.57799 133.596 0.898923 133.561C0.888314 130.181 0.888354 130.181 1.26531 126.571C2.2885 125.963 3.31165 125.356 4.36584 124.73Z" fill="#040400"/>
<path d="M390.155 157.966C394.462 159.419 398.708 160.949 402.928 162.641C402.911 162.971 402.893 163.3 402.876 163.64C397.211 163.69 393.888 162.602 389.052 159.911C389.416 159.269 389.78 158.628 390.155 157.966Z" fill="black"/>
<path d="M299.699 145.215C299.3 146.516 298.901 147.817 298.491 149.157C295.149 148.434 293.47 147.838 290.659 145.742C296.387 143.915 296.387 143.915 299.699 145.215Z" fill="#020200"/>
<path d="M338.419 75.1452C338.748 75.1625 339.078 75.1798 339.417 75.1976C339.227 78.8226 339.037 82.4476 338.842 86.1825C337.836 86.4602 336.83 86.7379 335.793 87.0241C336.037 85.9216 336.281 84.8191 336.532 83.6832C337.466 80.2767 337.466 80.2767 336.264 78.0365C336.924 78.071 337.583 78.1055 338.262 78.1411C338.314 77.1525 338.365 76.1638 338.419 75.1452Z" fill="#020200"/>
<path d="M692.666 79.6913C693.325 79.7259 693.984 79.7604 694.664 79.796C694.508 82.7619 694.353 85.7279 694.193 88.7837C693.187 89.0614 692.181 89.3391 691.144 89.6253C691.647 86.3471 692.149 83.0689 692.666 79.6913Z" fill="#030300"/>
<path d="M339.099 62.163C339.758 62.1976 340.417 62.2321 341.096 62.2677C341.966 67.0094 341.507 69.8372 339.47 74.1989C337.413 70.7332 337.504 70.1831 338.249 66.4369C338.402 65.6356 338.555 64.8342 338.713 64.0086C338.84 63.3996 338.968 62.7905 339.099 62.163Z" fill="black"/>
<path d="M346.115 176.687C348.561 177.311 348.561 177.311 351.056 177.947C351.021 178.607 350.987 179.266 350.951 179.945C351.922 180.326 352.894 180.707 353.895 181.1C352.871 181.708 351.848 182.315 350.794 182.941C349.195 181.209 347.618 179.457 346.063 177.686C346.08 177.356 346.097 177.027 346.115 176.687Z" fill="#010101"/>
<path d="M509.93 127.193C510.589 127.227 511.248 127.262 511.927 127.297C511.751 133.046 511.751 133.046 510.51 135.234C509.521 135.182 508.532 135.13 507.514 135.077C508.311 132.475 509.108 129.873 509.93 127.193Z" fill="black"/>
<path d="M338.462 36.094C338.792 36.1113 339.122 36.1285 339.461 36.1463C339.34 38.4532 339.219 40.76 339.095 43.1367C339.754 43.1713 340.413 43.2058 341.092 43.2414C341.37 44.2473 341.647 45.2532 341.934 46.2896C341.57 46.9315 341.205 47.5733 340.83 48.2345C338.885 47.1312 338.885 47.1312 337.814 44.8846C337.032 41.5271 337.516 39.3736 338.462 36.094Z" fill="#030300"/>
<path d="M592.345 140.524C594.791 141.148 594.791 141.148 597.286 141.785C597.251 142.444 597.217 143.103 597.181 143.782C598.187 143.504 599.193 143.226 600.229 142.94C599.848 143.912 599.467 144.883 599.074 145.884C598.102 145.502 597.131 145.121 596.13 144.728C595.766 145.37 595.402 146.012 595.027 146.673C594.142 144.644 593.257 142.615 592.345 140.524Z" fill="black"/>
<path d="M696.971 54.8826C697.959 54.9344 698.948 54.9862 699.966 55.0396C699.186 57.3119 698.406 59.5842 697.603 61.9253C696.649 61.2144 695.695 60.5035 694.712 59.7711C695.457 58.1579 696.203 56.5447 696.971 54.8826Z" fill="#050501"/>
<path d="M524.007 87.8756C525.952 88.9789 525.952 88.9789 525.952 88.9789L524.007 87.8756Z" fill="black"/>
</svg>
