<svg width="383" height="161" viewBox="0 0 383 161" fill="none" xmlns="http://www.w3.org/2000/svg">
<path d="M123.361 59.9452C129.567 62.399 134.015 68.913 138.048 74.0077C138.733 74.8063 138.733 74.8063 139.431 75.621C143.123 80.2093 143.903 84.1728 144.048 90.0077C145.506 87.0925 145.703 84.2272 146.048 81.0077C145.553 80.0177 145.553 80.0177 145.048 79.0077C146.407 72.4305 148.699 68.3491 154.216 64.4921C157.66 62.6872 160.64 62.1672 164.486 61.6327C165.763 61.4393 167.041 61.246 168.357 61.0468C173.227 60.9952 176.225 62.4881 179.923 65.5702C181.048 67.0077 181.048 67.0077 181.048 69.0077C181.708 69.0077 182.368 69.0077 183.048 69.0077C192.929 78.772 194.413 90.9913 196.565 104.161C197.178 107.774 197.957 111.316 198.798 114.883C199.02 115.829 199.242 116.775 199.47 117.75C199.924 119.523 200.47 121.272 201.048 123.008C201.708 123.008 202.368 123.008 203.048 123.008C204.115 124.633 205.095 126.314 206.048 128.008C206.938 129.449 207.834 130.886 208.736 132.32C209.173 133.018 209.61 133.715 210.06 134.433C210.386 134.953 210.712 135.472 211.048 136.008C207.422 140.074 204.257 142.333 199.048 144.008C196.486 143.82 196.486 143.82 194.048 143.008C193.088 142.763 192.128 142.518 191.138 142.266C187.449 140.764 186.367 139.351 184.173 136.07C183.502 135.084 182.83 134.098 182.138 133.082C181.448 132.067 180.759 131.053 180.048 130.008C178.613 128.131 177.176 126.256 175.736 124.383C172.364 119.75 170.428 115.536 169.048 110.008C168.655 108.653 168.259 107.299 167.861 105.945C167.459 104.491 167.459 104.491 167.048 103.008C166.775 103.593 166.502 104.178 166.22 104.781C163.694 109.581 160.701 113.304 155.673 115.445C154.807 115.631 153.941 115.816 153.048 116.008C153.048 116.668 153.048 117.328 153.048 118.008C141.709 120.631 141.709 120.631 136.048 118.008C135.347 117.905 134.646 117.801 133.923 117.695C130.309 116.37 128.56 112.955 126.798 109.695C126.551 109.138 126.303 108.581 126.048 108.008C126.069 109.307 126.089 110.606 126.111 111.945C126.132 113.299 126.12 114.655 126.048 116.008C125.718 116.338 125.388 116.668 125.048 117.008C124.219 123.23 126.379 127.563 129.052 133.141C130.179 136.385 130.29 137.821 129.048 141.008C125.395 144.551 121.16 146.693 116.298 148.07C112.578 147.999 111.11 146.994 108.048 145.008C105.931 145.364 105.931 145.364 104.048 146.008C100.397 139.771 99.4853 135.3 99.7357 128.133C99.7454 127.279 99.7551 126.426 99.765 125.547C99.8778 119.349 99.8778 119.349 101.048 117.008C100.883 116.451 100.718 115.894 100.548 115.32C99.8459 112.072 100.487 109.253 101.048 106.008C100.388 106.008 99.7282 106.008 99.0482 106.008C99.3038 103.665 99.6409 101.329 100.048 99.0077C101.038 98.5127 101.038 98.5127 102.048 98.0077C101.906 95.9449 101.759 93.8825 101.611 91.8202C101.53 90.6716 101.448 89.5231 101.365 88.3397C101.153 85.1097 101.153 85.1097 100.361 82.4686C99.9234 79.0248 101.052 76.9475 102.486 73.8202C104.375 70.0513 104.375 70.0513 105.048 66.0077C105.708 66.0077 106.368 66.0077 107.048 66.0077C107.048 65.3477 107.048 64.6877 107.048 64.0077C110.496 61.8857 113.071 62.0077 117.048 62.0077C117.729 61.6571 118.409 61.3064 119.111 60.9452C121.048 60.0077 121.048 60.0077 123.361 59.9452ZM124.048 101.008C125.048 104.008 125.048 104.008 125.048 104.008L124.048 101.008Z" fill="black"/>
<path d="M61.7357 56.6952C68.2886 56.7804 71.2797 58.1921 75.888 62.8788C79.8732 67.1899 82.3863 70.6983 83.5482 76.5077C82.9063 79.7172 81.336 80.9556 78.7591 82.8671C72.4616 87.0654 72.4616 87.0654 67.9857 86.8827C64.9553 85.98 62.6595 84.7742 60.0482 83.0077C59.7182 83.6677 59.3882 84.3277 59.0482 85.0077C58.0582 83.3577 57.0682 81.7077 56.0482 80.0077C46.2105 80.7455 40.5015 87.2791 34.1497 94.1913C31.9851 97.0922 30.9798 99.532 30.0482 103.008C30.7494 103.106 31.4507 103.204 32.1732 103.305C41.6069 104.791 47.7757 107.194 54.3216 114.219C56.0288 115.988 57.814 117.478 59.7357 119.008C63.7463 122.439 66.6083 125.749 67.3451 131.207C67.2735 134.72 66.7624 137.097 64.5716 139.89C62.4982 141.793 60.3592 143.401 58.0482 145.008C57.1935 145.617 56.3389 146.227 55.4583 146.855C49.2674 151.039 43.1666 153.811 36.0482 156.008C34.9203 156.38 33.7923 156.753 32.6302 157.137C25.2261 159.454 18.786 160.598 11.0482 160.008C9.74881 159.966 8.44944 159.925 7.11069 159.883C3.92019 158.971 2.31952 158.085 0.626312 155.172C-0.68776 150.253 0.369264 144.982 1.04819 140.008C5.01378 138.267 6.84139 138.037 11.0482 139.008C13.2562 138.791 13.2562 138.791 15.0482 138.008C15.5432 137.018 15.5432 137.018 16.0482 136.008C17.0176 136.42 17.9869 136.833 18.9857 137.258C23.3289 138.517 26.0474 137.14 29.9583 135.168C32.3593 133.835 34.74 132.497 37.0482 131.008C36.1201 130.801 35.1919 130.595 34.2357 130.383C23.7032 127.304 13.8155 120.515 7.32553 111.656C4.61368 106.033 4.05722 98.5429 5.7435 92.5272C6.71347 90.5529 7.78784 88.8082 9.04819 87.0077C9.70819 85.8939 10.3682 84.7802 11.0482 83.6327C12.9721 81.1076 14.104 80.0592 17.0482 79.0077C17.0482 78.3477 17.0482 77.6877 17.0482 77.0077C19.2458 75.3008 21.4438 73.7034 23.7357 72.1327C24.9905 71.2616 26.2445 70.3893 27.4974 69.5155C28.1089 69.092 28.7204 68.6686 29.3504 68.2323C30.8104 67.1792 32.198 66.0272 33.5677 64.8592C36.5849 62.607 39.4985 61.497 43.0482 60.2577C44.2444 59.8297 45.4407 59.4017 46.6732 58.9608C49.7041 58.1049 51.9411 57.8934 55.0482 58.0077C56.8289 56.227 59.3246 56.7515 61.7357 56.6952Z" fill="black"/>
<path d="M227.798 60.0077C230.048 61.0077 230.048 61.0077 231.361 63.0702C231.701 64.0293 231.701 64.0293 232.048 65.0077C233.059 64.8427 234.069 64.6777 235.111 64.5077C254.501 62.1878 254.501 62.1878 260.494 66.4569C263.403 69.3593 265.896 72.572 268.349 75.8632C269.872 78.0959 269.872 78.0959 272.048 79.0077C273.048 80.6796 273.048 80.6796 274.048 82.7577C274.4 83.486 274.752 84.2143 275.115 84.9647C275.787 86.4368 276.405 87.9346 276.986 89.4452C277.955 91.9832 277.955 91.9832 279.314 94.0311C283.498 100.767 283.498 100.767 283.048 105.258C282.111 108.774 280.928 110.953 279.048 114.008C278.329 117.703 278.329 117.703 278.048 121.008C277.388 121.008 276.728 121.008 276.048 121.008C275.842 121.606 275.636 122.204 275.423 122.82C273.521 125.846 271.295 126.655 268.048 128.008C267.388 128.008 266.728 128.008 266.048 128.008C265.718 128.668 265.388 129.328 265.048 130.008C262.316 131.029 259.66 131.902 256.861 132.695C256.056 132.924 255.251 133.152 254.422 133.387C247.019 135.316 240.628 135.238 233.048 134.008C232.718 133.018 232.388 132.028 232.048 131.008C230.47 131.101 230.47 131.101 228.861 131.195C224.89 131 223.206 130.304 220.048 128.008C219.553 128.998 219.553 128.998 219.048 130.008C215.209 123.064 212.61 116.066 210.259 108.523C209.148 105.003 209.148 105.003 207.408 101.91C205.918 98.729 205.758 96.7957 205.923 93.3202C206.058 90.0678 206.088 88.1285 205.048 85.0077C205.79 83.2811 205.79 83.2811 206.923 81.3827C208.979 77.5672 209.574 74.3872 209.775 70.0858C210.095 67.6518 210.732 66.078 212.048 64.0077C215.173 62.2577 215.173 62.2577 218.048 61.0077C218.378 61.9977 218.708 62.9877 219.048 64.0077C219.935 63.3271 220.822 62.6464 221.736 61.9452C225.048 60.0077 225.048 60.0077 227.798 60.0077ZM238.048 83.0077C235.303 87.125 235.829 90.197 236.048 95.0077C236.043 95.696 236.038 96.3844 236.033 97.0936C236.249 102.577 238.608 105.472 242.259 109.441C244.069 111.23 244.069 111.23 247.048 112.008C250.487 111.16 252.784 109.728 255.048 107.008C256.266 102.129 256.168 97.8996 255.048 93.0077C251.216 86.9545 244.755 84.6377 238.048 83.0077Z" fill="black"/>
<path d="M329.048 0.00769044C332.537 -0.079539 334.537 0.55678 337.158 2.86707C340.9 6.93771 343.908 10.4515 345.048 16.0077C344.366 16.5001 343.684 16.9925 342.982 17.4999C340.643 19.9768 340.643 19.9768 341.208 23.7655C341.485 25.2261 341.787 26.6819 342.111 28.1327C342.262 28.8953 342.413 29.658 342.569 30.4437C343.403 34.5087 344.426 38.4419 345.736 42.3827C346.908 45.9243 347.156 48.8409 347.048 52.5702C346.896 57.9874 348.019 62.0291 350.048 67.0077C350.35 67.8095 350.651 68.6113 350.962 69.4374C352.606 73.727 354.432 77.7764 356.611 81.8202C358.652 85.7417 359.642 89.3595 360.486 93.6952C361.551 98.8495 362.782 101.309 366.435 104.953C371.866 111.87 374.194 122.366 377.103 130.566C378.034 132.972 379.11 135.219 380.298 137.508C382.048 141.008 382.048 141.008 382.048 144.008C378.632 144.182 375.217 144.289 371.798 144.383C370.83 144.433 369.862 144.483 368.865 144.535C366.141 144.591 363.716 144.562 361.048 144.008C358.552 141.297 358.552 141.297 357.048 138.008C356.567 137.183 356.087 136.358 355.591 135.508C354.06 132.683 352.551 129.847 351.048 127.008C350.576 126.147 350.576 126.147 350.095 125.268C343.587 113.388 343.587 113.388 343.923 108.633C344.131 102.621 340.581 98.8474 336.861 94.3827C333.318 89.7411 332.491 83.8537 331.173 78.2577C328.748 67.5767 328.748 67.5767 323.556 58.1014C318.079 50.4965 317.408 39.7208 316.443 30.6366C315.946 26.0679 315.308 21.8309 313.923 17.4452C313.041 13.9791 313.204 12.3849 314.048 9.00769C313.718 8.01769 313.388 7.02769 313.048 6.00769C314.861 4.00769 314.861 4.00769 317.048 2.00769C318.038 2.00769 319.028 2.00769 320.048 2.00769C320.378 2.99769 320.708 3.98769 321.048 5.00769C321.811 4.51269 322.574 4.01769 323.361 3.50769C326.048 2.00769 326.048 2.00769 329.048 2.00769C329.048 1.34769 329.048 0.68769 329.048 0.00769044Z" fill="black"/>
</svg>
